<svg width="127" height="19" viewBox="0 0 127 19" fill="none" xmlns="http://www.w3.org/2000/svg">
<path fill-rule="evenodd" clip-rule="evenodd" d="M112.393 0.5027C112.065 0.837835 111.901 1.23794 111.901 1.70302C111.901 2.15443 112.065 2.54427 112.393 2.87257C112.72 3.20087 113.117 3.36501 113.581 3.36501C114.045 3.36501 114.441 3.20087 114.769 2.87257C115.097 2.54427 115.261 2.15443 115.261 1.70302C115.261 1.22426 115.097 0.820736 114.769 0.492441C114.441 0.164145 114.045 0 113.581 0C113.117 0 112.72 0.167565 112.393 0.5027ZM68.3682 9.17171V15.1015H65.6431V0.24622H68.3682V5.84773C68.9829 5.10907 69.8912 4.73974 71.0933 4.73974C72.3226 4.73974 73.2549 5.11249 73.89 5.85799C74.5252 6.6035 74.8428 7.56443 74.8428 8.74082V15.1015H72.1177V9.21274C72.1177 8.61087 71.9641 8.12527 71.6567 7.75594C71.3494 7.38661 70.8815 7.20194 70.2532 7.20194C69.6932 7.20194 69.2458 7.38661 68.9112 7.75594C68.5765 8.12527 68.3955 8.59719 68.3682 9.17171ZM44.4205 15.1015H47.207V0.553996H43.355L39.0933 11.0594L34.729 0.553996H31V15.1015H33.7046V4.98596L37.8844 15.1015H40.2407L44.4205 4.90389V15.1015ZM53.5368 12.9266C52.8265 12.9266 52.2186 12.6735 51.7132 12.1674C51.2215 11.6613 50.9756 10.9568 50.9756 10.054C50.9756 9.15118 51.2249 8.44673 51.7235 7.9406C52.2221 7.43448 52.8265 7.18143 53.5368 7.18143C54.2471 7.18143 54.8515 7.43448 55.3501 7.9406C55.8487 8.44673 56.0979 9.15118 56.0979 10.054C56.0979 10.9568 55.8487 11.6613 55.3501 12.1674C54.8515 12.6735 54.2471 12.9266 53.5368 12.9266ZM49.7463 6.21706C50.7571 5.20482 52.0206 4.6987 53.5368 4.6987C55.053 4.6987 56.3131 5.20482 57.317 6.21706C58.321 7.22931 58.823 8.50827 58.823 10.054C58.823 11.5997 58.321 12.8787 57.317 13.8909C56.3131 14.9032 55.053 15.4093 53.5368 15.4093C52.0206 15.4093 50.7605 14.9032 49.7565 13.8909C48.7525 12.8787 48.2505 11.5997 48.2505 10.054C48.2505 8.50827 48.7491 7.22931 49.7463 6.21706ZM63.0424 5.00648V1.99028H60.5837V3.40605C60.5837 3.88481 60.4505 4.27124 60.1841 4.56533C59.9178 4.85943 59.5319 5.00648 59.0265 5.00648H58.5143V7.42765H60.3378V12.1264C60.3378 13.0976 60.6247 13.8601 61.1984 14.4141C61.7721 14.9681 62.5506 15.2451 63.5341 15.2451C64.1625 15.2451 64.6747 15.1631 65.0708 14.9989V12.7419C64.8796 12.7966 64.5996 12.824 64.2308 12.824C63.821 12.824 63.5205 12.7351 63.3292 12.5572C63.138 12.3794 63.0424 12.0785 63.0424 11.6544V7.42765H65.0708V5.00648H63.0424ZM82.2483 7.4892C82.6239 7.87221 82.8254 8.34413 82.8527 8.90497H78.345C78.3724 8.39885 78.5909 7.94061 79.0007 7.53024C79.4105 7.11987 79.9432 6.91469 80.5989 6.91469C81.3228 6.91469 81.8726 7.10619 82.2483 7.4892ZM83.119 11.5313L85.3934 12.2084C85.1202 13.1386 84.584 13.9046 83.7849 14.5065C82.9859 15.1084 81.9921 15.4093 80.8038 15.4093C79.3558 15.4093 78.1265 14.9203 77.1157 13.9422C76.1049 12.9642 75.5995 11.6544 75.5995 10.013C75.5995 8.45356 76.0912 7.17801 77.0747 6.18629C78.0582 5.19456 79.2192 4.6987 80.5579 4.6987C82.1151 4.6987 83.3342 5.16378 84.2152 6.09395C85.0963 7.02412 85.5368 8.30309 85.5368 9.93089C85.5368 10.0403 85.5334 10.1634 85.5265 10.3002C85.5197 10.437 85.5163 10.5464 85.5163 10.6285L85.4958 10.7721H78.2836C78.3109 11.4287 78.5704 11.9759 79.0622 12.4136C79.5539 12.8513 80.1413 13.0702 80.8242 13.0702C81.9853 13.0702 82.7502 12.5572 83.119 11.5313ZM92.5837 7.7149V4.96544C92.3105 4.93808 92.0988 4.92441 91.9485 4.92441C90.5279 4.92441 89.5718 5.45104 89.08 6.50432V5.00648H86.4369V15.1015H89.162V10.4849C89.162 9.47264 89.401 8.74424 89.8791 8.29968C90.3572 7.85511 90.9855 7.63283 91.7641 7.63283C92.0373 7.63283 92.3105 7.66019 92.5837 7.7149ZM92.4593 12.2905L94.7951 11.7775C94.8224 12.2153 94.9966 12.5812 95.3176 12.8753C95.6386 13.1694 96.0791 13.3164 96.6391 13.3164C97.0626 13.3164 97.3904 13.2207 97.6226 13.0292C97.8548 12.8377 97.9709 12.5983 97.9709 12.311C97.9709 11.8049 97.609 11.4766 96.885 11.3261L95.5532 11.0184C94.6107 10.8132 93.9038 10.4438 93.4326 9.91037C92.9613 9.37689 92.7257 8.74082 92.7257 8.00216C92.7257 7.08567 93.0843 6.30598 93.8014 5.66307C94.5185 5.02016 95.4166 4.6987 96.4957 4.6987C97.1787 4.6987 97.7797 4.79788 98.2988 4.99622C98.8178 5.19457 99.2208 5.44762 99.5076 5.7554C99.7945 6.06318 100.013 6.37437 100.163 6.68898C100.314 7.0036 100.409 7.31137 100.45 7.61231L98.1758 8.12527C98.1212 7.76962 97.9607 7.45501 97.6943 7.18143C97.428 6.90785 97.0353 6.77106 96.5162 6.77106C96.1611 6.77106 95.8571 6.86681 95.6044 7.05832C95.3517 7.24982 95.2254 7.4892 95.2254 7.77646C95.2254 8.2689 95.5327 8.56983 96.1474 8.67927L97.5816 8.98704C98.5515 9.19223 99.2925 9.56839 99.8047 10.1156C100.317 10.6627 100.573 11.3193 100.573 12.0853C100.573 12.9881 100.232 13.7678 99.5486 14.4244C98.8656 15.081 97.9026 15.4093 96.6596 15.4093C95.9493 15.4093 95.3142 15.3033 94.7541 15.0913C94.1941 14.8792 93.7604 14.6057 93.4531 14.2705C93.1457 13.9354 92.9135 13.6003 92.7564 13.2651C92.5993 12.93 92.5003 12.6051 92.4593 12.2905ZM104.239 15.1015V9.17171C104.267 8.59719 104.448 8.12527 104.782 7.75594C105.117 7.38661 105.564 7.20194 106.124 7.20194C106.753 7.20194 107.22 7.38661 107.528 7.75594C107.835 8.12527 107.989 8.61087 107.989 9.21274V15.1015H110.714V8.74082C110.714 7.56443 110.396 6.6035 109.761 5.85799C109.126 5.11249 108.194 4.73974 106.964 4.73974C105.762 4.73974 104.854 5.10907 104.239 5.84773V0.24622H101.514V15.1015H104.239ZM114.954 15.1015H112.229V5.00648H114.954V15.1015ZM119.337 19H116.612V5.00648H119.255V6.23758C119.501 5.82721 119.897 5.48182 120.443 5.2014C120.99 4.92098 121.625 4.78078 122.349 4.78078C123.783 4.78078 124.917 5.26979 125.75 6.24784C126.583 7.22589 127 8.48775 127 10.0335C127 11.5792 126.559 12.8513 125.678 13.8499C124.797 14.8485 123.653 15.3477 122.246 15.3477C120.908 15.3477 119.938 14.9374 119.337 14.1166V19ZM124.316 10.054C124.316 10.9295 124.077 11.6271 123.599 12.1469C123.134 12.653 122.54 12.906 121.816 12.906C121.092 12.906 120.491 12.6462 120.013 12.1264C119.535 11.6065 119.296 10.9158 119.296 10.054C119.296 9.19222 119.535 8.50486 120.013 7.9919C120.491 7.47894 121.092 7.22246 121.816 7.22246C122.54 7.22246 123.138 7.47552 123.609 7.98164C124.08 8.48776 124.316 9.17854 124.316 10.054Z" fill="white"/>
<path fill-rule="evenodd" clip-rule="evenodd" d="M6.71875 13.8224V11.757V7.78505C6.71875 7.25857 7.13848 6.83178 7.65625 6.83178H17.3438C17.8615 6.83178 18.2812 7.25857 18.2812 7.78505V11.757V13.8224C18.2812 14.3489 18.701 14.7757 19.2188 14.7757H24.0625C24.5803 14.7757 25 14.3489 25 13.8224V0.953271C25 0.426794 24.5803 0 24.0625 0H19.2188C19.1655 0 19.1133 0.00451196 19.0625 0.0131803V0H5.9375V0.0131803C5.88669 0.00451196 5.83449 0 5.78125 0H0.9375C0.419733 0 0 0.426794 0 0.953271V13.8224C0 14.3489 0.419733 14.7757 0.9375 14.7757H5.78125C6.29902 14.7757 6.71875 14.3489 6.71875 13.8224ZM15.7812 8.42056H9.21875C8.70098 8.42056 8.28125 8.84735 8.28125 9.37383V16.0467C8.28125 16.5732 8.70098 17 9.21875 17H15.7812C16.299 17 16.7188 16.5732 16.7188 16.0467V9.37383C16.7188 8.84735 16.299 8.42056 15.7812 8.42056Z" fill="white"/>
</svg>
