<svg width="13" height="7" viewBox="0 0 13 7" fill="none" xmlns="http://www.w3.org/2000/svg">
<path d="M6.25477 5.66403C6.25477 5.74844 6.29598 5.82954 6.3681 5.88714C6.4383 5.9421 6.52721 5.9699 6.61993 5.9656C6.71265 5.96163 6.79811 5.92654 6.86031 5.86662L11.6428 1.28475L11.2811 1.00039L6.4982 5.58225C6.55009 5.5326 6.63899 5.52862 6.6966 5.57365C6.75269 5.618 6.75613 5.69745 6.70653 5.74578L6.34404 5.46142C6.28643 5.51736 6.25476 5.5892 6.25476 5.66401L6.25477 5.66403Z" fill="#3755B0" stroke="#3755B0"/>
<path fill-rule="evenodd" clip-rule="evenodd" d="M6.34469 5.86623L1.56374 1.28437L1.92623 1L6.61745 5.49624C6.65058 5.49988 6.68241 5.51611 6.70641 5.54434L6.7064 5.54434L6.68709 5.56298L6.7068 5.58187L6.86094 5.46104C6.98839 5.58386 6.97808 5.77454 6.83576 5.88808C6.69344 5.99898 6.4729 5.98938 6.34469 5.86623ZM6.68709 5.56298L6.49807 5.74544C6.44694 5.68438 6.45076 5.59034 6.50685 5.53539C6.53864 5.50475 6.57893 5.49199 6.61745 5.49624L6.68709 5.56298Z" fill="#3755B0"/>
<path d="M1.56374 1.28437L1.21778 1.64536L0.801743 1.24664L1.25513 0.890969L1.56374 1.28437ZM6.34469 5.86623L6.69065 5.50524L6.69106 5.50563L6.34469 5.86623ZM1.92623 1L1.61763 0.606606L1.95898 0.338823L2.27221 0.639028L1.92623 1ZM6.70641 5.54434L7.0874 5.22054L6.36716 5.91165L6.70641 5.54434ZM6.7064 5.54434L6.35915 5.1846L6.69883 4.85671L7.04565 5.17704L6.7064 5.54434ZM6.7068 5.58187L7.01525 5.97538L6.67393 6.24293L6.36082 5.94284L6.7068 5.58187ZM6.86094 5.46104L6.55249 5.06752L6.89477 4.79922L7.20791 5.10102L6.86094 5.46104ZM6.83576 5.88808L7.1476 6.27896L7.14308 6.28248L6.83576 5.88808ZM6.49807 5.74544L6.84533 6.10518L6.45923 6.47789L6.11471 6.06644L6.49807 5.74544ZM6.50685 5.53539L6.15692 5.17822L6.1599 5.17535L6.50685 5.53539ZM1.9097 0.923377L6.69065 5.50524L5.99874 6.22722L1.21778 1.64536L1.9097 0.923377ZM2.23484 1.3934L1.87235 1.67776L1.25513 0.890969L1.61763 0.606606L2.23484 1.3934ZM6.27148 5.85721L1.58026 1.36098L2.27221 0.639028L6.96342 5.13526L6.27148 5.85721ZM6.67218 4.99924C6.83317 5.01697 6.98138 5.0958 7.0874 5.22054L6.32542 5.86815C6.38344 5.93641 6.468 5.9828 6.56272 5.99323L6.67218 4.99924ZM6.36716 5.91165L6.36716 5.91164L7.04565 5.17704L7.04565 5.17704L6.36716 5.91165ZM7.05366 5.90408L7.03435 5.92272L6.33983 5.20324L6.35915 5.1846L7.05366 5.90408ZM6.36082 5.94284L6.34112 5.92396L7.03306 5.20201L7.05277 5.22089L6.36082 5.94284ZM7.1694 5.85455L7.01525 5.97538L6.39834 5.18835L6.55249 5.06752L7.1694 5.85455ZM6.52394 5.49723C6.49021 5.52413 6.45449 5.57699 6.45034 5.64936C6.44614 5.72236 6.47612 5.78457 6.51398 5.82106L7.20791 5.10102C7.56048 5.4408 7.51753 5.98379 7.14758 6.27893L6.52394 5.49723ZM6.69106 5.50563C6.65664 5.47257 6.62346 5.46614 6.60701 5.46541C6.59041 5.46467 6.56105 5.46827 6.52844 5.49368L7.14308 6.28248C6.80998 6.54204 6.3105 6.52668 5.99833 6.22683L6.69106 5.50563ZM7.03435 5.92272L6.84533 6.10518L6.15081 5.3857L6.33983 5.20324L7.03435 5.92272ZM6.11471 6.06644C5.90063 5.81076 5.9093 5.42085 6.15693 5.17823L6.85676 5.89254C6.99222 5.75983 6.99325 5.558 6.88143 5.42445L6.11471 6.06644ZM6.1599 5.17535C6.29715 5.04308 6.48408 4.97852 6.67218 4.99924L6.56272 5.99323C6.67378 6.00546 6.78013 5.96641 6.8538 5.89542L6.1599 5.17535ZM6.34112 5.92396L6.27148 5.85721L6.96342 5.13526L7.03306 5.20201L6.34112 5.92396Z" fill="#3755B0"/>
</svg>
