<svg width="11" height="14" viewBox="0 0 11 14" fill="none" xmlns="http://www.w3.org/2000/svg">
<path d="M3.61816 10.1034H8.13205V10.6676H3.61816V10.1034Z" fill="white" stroke="white" stroke-width="0.5"/>
<path d="M5.59294 8.69271H6.15717V7.80614C6.64242 7.6799 7.00353 7.24191 7.00353 6.71788C7.00353 6.09581 6.49712 5.58941 5.87505 5.58941C5.56401 5.58941 5.31082 5.33692 5.31082 5.02517C5.31082 4.71343 5.56401 4.46094 5.87505 4.46094H7.00353V3.8967H6.15717V3.05035H5.59294V3.93691C5.10769 4.06316 4.74658 4.50115 4.74658 5.02517C4.74658 5.64724 5.25299 6.15365 5.87505 6.15365C6.1861 6.15365 6.43929 6.40613 6.43929 6.71788C6.43929 7.02963 6.1861 7.28212 5.87505 7.28212H4.74658V7.84635H5.59294V8.69271Z" fill="white" stroke="white" stroke-width="0.5"/>
<path fill-rule="evenodd" clip-rule="evenodd" d="M1.0791 13.4886V0.511196H8.24914L10.6711 2.93317V13.4886H1.0791ZM1.64334 12.9244H10.1069V3.16735L8.01496 1.07543H1.64334V12.9244Z" fill="white"/>
<path d="M1.0791 0.511196V0.261196H0.829102V0.511196H1.0791ZM1.0791 13.4886H0.829102V13.7386H1.0791V13.4886ZM8.24914 0.511196L8.42592 0.334419L8.3527 0.261196H8.24914V0.511196ZM10.6711 2.93317H10.9211V2.82962L10.8479 2.75639L10.6711 2.93317ZM10.6711 13.4886V13.7386H10.9211V13.4886H10.6711ZM10.1069 12.9244V13.1744H10.3569V12.9244H10.1069ZM1.64334 12.9244H1.39334V13.1744H1.64334V12.9244ZM10.1069 3.16735H10.3569V3.0638L10.2837 2.99057L10.1069 3.16735ZM8.01496 1.07543L8.19174 0.898656L8.11852 0.825432H8.01496V1.07543ZM1.64334 1.07543V0.825432H1.39334V1.07543H1.64334ZM0.829102 0.511196V13.4886H1.3291V0.511196H0.829102ZM8.24914 0.261196H1.0791V0.761196H8.24914V0.261196ZM10.8479 2.75639L8.42592 0.334419L8.07237 0.687973L10.4943 3.10995L10.8479 2.75639ZM10.9211 13.4886V2.93317H10.4211V13.4886H10.9211ZM1.0791 13.7386H10.6711V13.2386H1.0791V13.7386ZM10.1069 12.6744H1.64334V13.1744H10.1069V12.6744ZM9.85688 3.16735V12.9244H10.3569V3.16735H9.85688ZM7.83819 1.25221L9.9301 3.34413L10.2837 2.99057L8.19174 0.898656L7.83819 1.25221ZM1.64334 1.32543H8.01496V0.825432H1.64334V1.32543ZM1.89334 12.9244V1.07543H1.39334V12.9244H1.89334Z" fill="white"/>
</svg>
