<svg width="11" height="7" viewBox="0 0 11 7" fill="none" xmlns="http://www.w3.org/2000/svg">
<path d="M10.6719 0.346797C10.882 0.568587 11 0.869548 11 1.18338C11 1.49721 10.882 1.79817 10.6719 2.01997L6.28685 6.6532C6.07703 6.87524 5.79231 7 5.49542 7C5.19852 7 4.9138 6.87524 4.70398 6.6532L0.320781 2.01799C-0.109768 1.55489 -0.106497 0.811435 0.328108 0.35258C0.762712 -0.106276 1.46605 -0.108857 1.90366 0.346797L5.49635 4.14444L9.08904 0.346797C9.29887 0.12476 9.58358 0 9.88048 0C10.1774 0 10.4621 0.12476 10.6719 0.346797Z" fill="white"/>
</svg>
