<svg width="17" height="16" viewBox="0 0 17 16" fill="none" xmlns="http://www.w3.org/2000/svg">
<path fill-rule="evenodd" clip-rule="evenodd" d="M8.5 0.5C10.5037 0.5 12.3866 1.28 13.8029 2.69632C15.22 4.11263 16 5.99632 16 8C16 10.0037 15.2192 11.8874 13.8029 13.3037C12.3866 14.72 10.5037 15.5 8.5 15.5C6.49632 15.5 4.61421 14.72 3.19711 13.3037C1.78 11.8874 1 10.0037 1 8C1 5.99632 1.78079 4.11263 3.19711 2.69632C4.61342 1.28 6.49632 0.5 8.5 0.5ZM11.8221 10.7639L13.5108 12.4526C14.605 11.2234 15.2105 9.66026 15.2105 8C15.2105 6.33974 14.605 4.77658 13.5108 3.54737L11.8221 5.23605C12.4711 6.01447 12.8421 6.97447 12.8421 8C12.8421 9.02553 12.4711 9.98632 11.8221 10.7639ZM8.5 11.5526C7.55105 11.5526 6.65895 11.1832 5.98789 10.5121C5.31684 9.84105 4.94737 8.94895 4.94737 8C4.94737 7.05105 5.31684 6.15895 5.98789 5.48789C6.65895 4.81684 7.55105 4.44737 8.5 4.44737C9.44895 4.44737 10.3411 4.81684 11.0121 5.48789C11.6832 6.15895 12.0526 7.05105 12.0526 8C12.0526 8.94895 11.6832 9.84105 11.0121 10.5121C10.3411 11.1832 9.44895 11.5526 8.5 11.5526ZM11.2639 4.67789L12.9526 2.98921C11.7234 1.89421 10.1603 1.28947 8.5 1.28947C6.83974 1.28947 5.27658 1.89421 4.04737 2.98921L5.73605 4.67789C6.51447 4.02895 7.47447 3.65789 8.5 3.65789C9.52553 3.65789 10.4863 4.02895 11.2639 4.67789ZM3.48921 3.54737L5.17789 5.23605C4.52895 6.01368 4.15789 6.97447 4.15789 8C4.15789 9.02553 4.52895 9.98553 5.17789 10.7639L3.48921 12.4526C2.395 11.2234 1.78947 9.66026 1.78947 8C1.78947 6.33974 2.395 4.77658 3.48921 3.54737ZM5.73605 11.3221L4.04737 13.0108C5.27658 14.1058 6.83974 14.7105 8.5 14.7105C10.1603 14.7105 11.7234 14.1058 12.9526 13.0108L11.2639 11.3221C10.4855 11.9711 9.52553 12.3421 8.5 12.3421C7.47447 12.3421 6.51368 11.9711 5.73605 11.3221Z" fill="white"/>
<path d="M13.8029 2.69632L13.6968 2.80238L13.6969 2.80241L13.8029 2.69632ZM3.19711 13.3037L3.09107 13.4098L3.19711 13.3037ZM13.5108 12.4526L13.4047 12.5587L13.5171 12.6711L13.6228 12.5524L13.5108 12.4526ZM11.8221 10.7639L11.7069 10.6678L11.6191 10.7731L11.716 10.87L11.8221 10.7639ZM13.5108 3.54737L13.6228 3.44763L13.5171 3.32889L13.4047 3.4413L13.5108 3.54737ZM11.8221 5.23605L11.716 5.12999L11.6192 5.22687L11.7069 5.3321L11.8221 5.23605ZM5.98789 10.5121L6.09396 10.406H6.09396L5.98789 10.5121ZM5.98789 5.48789L5.88183 5.38183L5.88183 5.38183L5.98789 5.48789ZM11.0121 5.48789L10.906 5.59396V5.59396L11.0121 5.48789ZM11.0121 10.5121L10.906 10.406L11.0121 10.5121ZM12.9526 2.98921L13.0587 3.09528L13.1711 2.98291L13.0524 2.87721L12.9526 2.98921ZM11.2639 4.67789L11.1678 4.79306L11.2731 4.88089L11.37 4.78396L11.2639 4.67789ZM4.04737 2.98921L3.94759 2.87721L3.82894 2.98291L3.9413 3.09528L4.04737 2.98921ZM5.73605 4.67789L5.62999 4.78396L5.72687 4.88084L5.8321 4.79311L5.73605 4.67789ZM5.17789 5.23605L5.29306 5.33216L5.38089 5.22692L5.28396 5.12999L5.17789 5.23605ZM3.48921 3.54737L3.59528 3.4413L3.48287 3.32889L3.37717 3.44763L3.48921 3.54737ZM5.17789 10.7639L5.28396 10.87L5.38084 10.7731L5.29311 10.6679L5.17789 10.7639ZM3.48921 12.4526L3.37717 12.5524L3.48287 12.6711L3.59528 12.5587L3.48921 12.4526ZM4.04737 13.0108L3.9413 12.9047L3.82894 13.0171L3.94759 13.1228L4.04737 13.0108ZM5.73605 11.3221L5.83216 11.2069L5.72692 11.1191L5.62999 11.216L5.73605 11.3221ZM12.9526 13.0108L13.0524 13.1228L13.1711 13.0171L13.0587 12.9047L12.9526 13.0108ZM11.2639 11.3221L11.37 11.216L11.2731 11.1192L11.1679 11.2069L11.2639 11.3221ZM13.909 2.59025C12.4645 1.1458 10.5435 0.35 8.5 0.35V0.65C10.4639 0.65 12.3086 1.4142 13.6968 2.80238L13.909 2.59025ZM16.15 8C16.15 5.95655 15.3542 4.03469 13.9089 2.59022L13.6969 2.80241C15.0858 4.19057 15.85 6.03608 15.85 8H16.15ZM13.909 13.4097C15.3534 11.9653 16.15 10.0435 16.15 8H15.85C15.85 9.96388 15.085 11.8094 13.6968 13.1976L13.909 13.4097ZM8.5 15.65C10.5435 15.65 12.4645 14.8542 13.909 13.4097L13.6968 13.1976C12.3086 14.5858 10.4639 15.35 8.5 15.35V15.65ZM3.09107 13.4098C4.53628 14.8542 6.45651 15.65 8.5 15.65V15.35C6.53612 15.35 4.69214 14.5858 3.30314 13.1976L3.09107 13.4098ZM0.85 8C0.85 10.0435 1.64579 11.9653 3.09107 13.4098L3.30314 13.1976C1.91421 11.8094 1.15 9.96392 1.15 8H0.85ZM3.09104 2.59025C1.64661 4.03468 0.85 5.95651 0.85 8H1.15C1.15 6.03612 1.91497 4.19058 3.30317 2.80238L3.09104 2.59025ZM8.5 0.35C6.45654 0.35 4.53549 1.1458 3.09104 2.59025L3.30317 2.80238C4.69135 1.4142 6.5361 0.65 8.5 0.65V0.35ZM13.6169 12.3466L11.9282 10.6579L11.716 10.87L13.4047 12.5587L13.6169 12.3466ZM15.0605 8C15.0605 9.62301 14.4688 11.1508 13.3988 12.3529L13.6228 12.5524C14.7412 11.2961 15.3605 9.69752 15.3605 8H15.0605ZM13.3988 3.6471C14.4688 4.84921 15.0605 6.37699 15.0605 8H15.3605C15.3605 6.30248 14.7412 4.70395 13.6228 3.44763L13.3988 3.6471ZM11.9282 5.34212L13.6169 3.65343L13.4047 3.4413L11.716 5.12999L11.9282 5.34212ZM12.9921 8C12.9921 6.93727 12.6074 5.94372 11.9373 5.14L11.7069 5.3321C12.3347 6.08522 12.6921 7.01168 12.6921 8H12.9921ZM11.9373 10.8601C12.6074 10.0571 12.9921 9.06269 12.9921 8H12.6921C12.6921 8.98836 12.3347 9.91557 11.7069 10.6678L11.9373 10.8601ZM5.88183 10.6182C6.58101 11.3174 7.51127 11.7026 8.5 11.7026V11.4026C7.59083 11.4026 6.73688 11.049 6.09396 10.406L5.88183 10.6182ZM4.79737 8C4.79737 8.98873 5.18264 9.91899 5.88183 10.6182L6.09396 10.406C5.45104 9.76312 5.09737 8.90917 5.09737 8H4.79737ZM5.88183 5.38183C5.18264 6.08101 4.79737 7.01127 4.79737 8H5.09737C5.09737 7.09083 5.45104 6.23688 6.09396 5.59396L5.88183 5.38183ZM8.5 4.29737C7.51127 4.29737 6.58101 4.68264 5.88183 5.38183L6.09396 5.59396C6.73688 4.95104 7.59083 4.59737 8.5 4.59737V4.29737ZM11.1182 5.38183C10.419 4.68264 9.48873 4.29737 8.5 4.29737V4.59737C9.40917 4.59737 10.2631 4.95104 10.906 5.59396L11.1182 5.38183ZM12.2026 8C12.2026 7.01127 11.8174 6.08101 11.1182 5.38183L10.906 5.59396C11.549 6.23688 11.9026 7.09083 11.9026 8H12.2026ZM11.1182 10.6182C11.8174 9.91899 12.2026 8.98873 12.2026 8H11.9026C11.9026 8.90917 11.549 9.76312 10.906 10.406L11.1182 10.6182ZM8.5 11.7026C9.48873 11.7026 10.419 11.3174 11.1182 10.6182L10.906 10.406C10.2631 11.049 9.40917 11.4026 8.5 11.4026V11.7026ZM12.8466 2.88314L11.1579 4.57183L11.37 4.78396L13.0587 3.09528L12.8466 2.88314ZM8.5 1.43947C10.123 1.43947 11.6508 2.03041 12.8529 3.10121L13.0524 2.87721C11.796 1.75801 10.1975 1.13947 8.5 1.13947V1.43947ZM4.14714 3.10121C5.3492 2.03041 6.87695 1.43947 8.5 1.43947V1.13947C6.80252 1.13947 5.20396 1.75801 3.94759 2.87721L4.14714 3.10121ZM5.84212 4.57183L4.15343 2.88314L3.9413 3.09528L5.62999 4.78396L5.84212 4.57183ZM8.5 3.50789C7.43727 3.50789 6.44372 3.89264 5.64 4.56268L5.8321 4.79311C6.58522 4.16525 7.51168 3.80789 8.5 3.80789V3.50789ZM11.3601 4.56273C10.5571 3.89262 9.56269 3.50789 8.5 3.50789V3.80789C9.48836 3.80789 10.4156 4.16528 11.1678 4.79306L11.3601 4.56273ZM5.28396 5.12999L3.59528 3.4413L3.38314 3.65343L5.07183 5.34212L5.28396 5.12999ZM4.30789 8C4.30789 7.01164 4.66528 6.08443 5.29306 5.33216L5.06273 5.13994C4.39262 5.94294 4.00789 6.93731 4.00789 8H4.30789ZM5.29311 10.6679C4.66525 9.91478 4.30789 8.98832 4.30789 8H4.00789C4.00789 9.06273 4.39264 10.0563 5.06268 10.86L5.29311 10.6679ZM3.59528 12.5587L5.28396 10.87L5.07183 10.6579L3.38314 12.3466L3.59528 12.5587ZM1.63947 8C1.63947 9.69752 2.25883 11.2961 3.37717 12.5524L3.60125 12.3529C2.53117 11.1508 1.93947 9.62301 1.93947 8H1.63947ZM3.37717 3.44763C2.25883 4.70395 1.63947 6.30248 1.63947 8H1.93947C1.93947 6.37699 2.53117 4.84921 3.60125 3.6471L3.37717 3.44763ZM4.15343 13.1169L5.84212 11.4282L5.62999 11.216L3.9413 12.9047L4.15343 13.1169ZM8.5 14.5605C6.87695 14.5605 5.3492 13.9696 4.14714 12.8988L3.94759 13.1228C5.20396 14.242 6.80252 14.8605 8.5 14.8605V14.5605ZM12.8529 12.8988C11.6508 13.9696 10.123 14.5605 8.5 14.5605V14.8605C10.1975 14.8605 11.796 14.242 13.0524 13.1228L12.8529 12.8988ZM11.1579 11.4282L12.8466 13.1169L13.0587 12.9047L11.37 11.216L11.1579 11.4282ZM8.5 12.4921C9.56273 12.4921 10.5563 12.1074 11.36 11.4373L11.1679 11.2069C10.4148 11.8347 9.48832 12.1921 8.5 12.1921V12.4921ZM5.63994 11.4373C6.44294 12.1074 7.43731 12.4921 8.5 12.4921V12.1921C7.51164 12.1921 6.58443 11.8347 5.83216 11.2069L5.63994 11.4373Z" fill="white"/>
</svg>
