<svg width="11" height="14" viewBox="0 0 11 14" fill="none" xmlns="http://www.w3.org/2000/svg">
<path fill-rule="evenodd" clip-rule="evenodd" d="M5.48779 12.5C7.30689 12.5 9.64352 12.7608 10.5 12.5C10.5 10.0147 8.48528 8 6 8C3.51472 8 1.5 10.0147 1.5 12.5C2.17476 12.3041 4.01751 12.5 5.48779 12.5Z" fill="white" fill-opacity="0.2"/>
<path fill-rule="evenodd" clip-rule="evenodd" d="M6 6.5C7.38071 6.5 8.5 5.38071 8.5 4C8.5 2.61929 7.38071 1.5 6 1.5C4.61929 1.5 3.5 2.61929 3.5 4C3.5 5.38071 4.61929 6.5 6 6.5Z" fill="white" fill-opacity="0.2"/>
<path fill-rule="evenodd" clip-rule="evenodd" d="M5.7912 6.85079C4.23447 6.85079 2.97277 5.51488 2.97277 3.86657C2.97277 2.21827 4.23447 0.882355 5.7912 0.882355C7.34793 0.882355 8.60962 2.21827 8.60962 3.86657C8.60962 5.51488 7.34793 6.85079 5.7912 6.85079ZM1.56124 13.1176H10.021C10.3315 13.1176 10.5825 12.8484 10.5824 12.5208C10.5824 9.71845 8.43776 7.44763 5.79108 7.44763C3.14441 7.44763 0.999756 9.71845 0.999756 12.5208C0.999756 12.8495 1.25296 13.1176 1.56124 13.1176ZM1.56355 12.5208C1.56355 10.0483 3.45607 8.04448 5.7912 8.04448C8.12635 8.04448 10.0189 10.0483 10.0211 12.5208C10.0211 12.5208 1.56355 12.5196 1.56355 12.5208ZM8.04594 3.86657C8.04594 5.185 7.03638 6.25395 5.7912 6.25395C4.54602 6.25395 3.53645 5.185 3.53645 3.86657C3.53645 2.54815 4.54602 1.4792 5.7912 1.4792C7.03638 1.4792 8.04594 2.54815 8.04594 3.86657Z" fill="white"/>
<path d="M10.5824 12.5208H10.3824V12.5209L10.5824 12.5208ZM10.0211 12.5208L10.0211 12.7208L10.2213 12.7208L10.2211 12.5206L10.0211 12.5208ZM2.77277 3.86657C2.77277 5.61441 4.11339 7.05079 5.7912 7.05079V6.65079C4.35554 6.65079 3.17277 5.41534 3.17277 3.86657H2.77277ZM5.7912 0.682355C4.11339 0.682355 2.77277 2.11874 2.77277 3.86657H3.17277C3.17277 2.3178 4.35554 1.08235 5.7912 1.08235V0.682355ZM8.80962 3.86657C8.80962 2.11874 7.469 0.682355 5.7912 0.682355V1.08235C7.22685 1.08235 8.40963 2.3178 8.40963 3.86657H8.80962ZM5.7912 7.05079C7.469 7.05079 8.80962 5.61441 8.80962 3.86657H8.40963C8.40963 5.41534 7.22685 6.65079 5.7912 6.65079V7.05079ZM10.021 12.9176H1.56124V13.3176H10.021V12.9176ZM10.3824 12.5209C10.3825 12.7502 10.2092 12.9176 10.021 12.9176V13.3176C10.4538 13.3176 10.7826 12.9466 10.7824 12.5207L10.3824 12.5209ZM5.79108 7.64763C8.31668 7.64763 10.3824 9.81798 10.3824 12.5208H10.7824C10.7824 9.61891 8.55883 7.24763 5.79108 7.24763V7.64763ZM1.19976 12.5208C1.19976 9.81798 3.26548 7.64763 5.79108 7.64763V7.24763C3.02334 7.24763 0.799756 9.61891 0.799756 12.5208H1.19976ZM1.56124 12.9176C1.37453 12.9176 1.19976 12.7505 1.19976 12.5208H0.799756C0.799756 12.9485 1.1314 13.3176 1.56124 13.3176V12.9176ZM5.7912 7.84448C3.335 7.84448 1.36355 9.94879 1.36355 12.5208H1.76355C1.76355 10.1479 3.57715 8.24448 5.7912 8.24448V7.84448ZM10.2211 12.5206C10.2188 9.94878 8.24744 7.84448 5.7912 7.84448V8.24448C8.00525 8.24448 9.81898 10.1479 9.82109 12.521L10.2211 12.5206ZM1.76355 12.5208C1.70985 12.6572 1.57411 12.7205 1.57067 12.7207C1.56955 12.7207 1.56789 12.7208 1.56743 12.7208C1.56677 12.7208 1.56644 12.7208 1.56682 12.7208C1.56739 12.7208 1.56856 12.7208 1.57053 12.7208C1.57436 12.7207 1.58025 12.7207 1.58822 12.7207C1.6041 12.7207 1.62776 12.7206 1.65872 12.7206C1.7206 12.7206 1.81141 12.7205 1.92703 12.7205C2.15827 12.7204 2.48862 12.7203 2.88506 12.7203C3.67794 12.7203 4.73512 12.7203 5.79231 12.7204C6.8495 12.7204 7.90669 12.7206 8.69958 12.7206C9.09603 12.7207 9.4264 12.7207 9.65766 12.7208C9.77329 12.7208 9.86414 12.7208 9.92608 12.7208C9.95706 12.7208 9.9808 12.7208 9.9968 12.7208C10.0048 12.7208 10.0109 12.7208 10.0149 12.7208C10.017 12.7208 10.0185 12.7208 10.0195 12.7208C10.02 12.7208 10.0204 12.7208 10.0207 12.7208C10.0208 12.7208 10.0209 12.7208 10.021 12.7208C10.021 12.7208 10.0211 12.7208 10.0211 12.5208C10.0211 12.3208 10.0211 12.3208 10.021 12.3208C10.021 12.3208 10.0209 12.3208 10.0207 12.3208C10.0205 12.3208 10.0201 12.3208 10.0196 12.3208C10.0186 12.3208 10.017 12.3208 10.015 12.3208C10.0109 12.3208 10.0049 12.3208 9.99686 12.3208C9.98086 12.3208 9.95711 12.3208 9.92614 12.3208C9.86419 12.3208 9.77334 12.3208 9.65771 12.3208C9.42645 12.3207 9.09607 12.3207 8.69963 12.3206C7.90673 12.3205 6.84953 12.3204 5.79234 12.3204C4.73514 12.3203 3.67794 12.3203 2.88503 12.3203C2.48858 12.3203 2.15818 12.3204 1.9269 12.3205C1.81126 12.3205 1.72036 12.3206 1.65836 12.3206C1.62737 12.3206 1.60353 12.3207 1.58742 12.3207C1.57938 12.3207 1.57314 12.3207 1.56884 12.3208C1.56675 12.3208 1.56485 12.3208 1.56337 12.3208C1.56273 12.3208 1.56162 12.3208 1.56045 12.3208C1.55974 12.3208 1.55788 12.3209 1.55664 12.3209C1.55306 12.3211 1.41726 12.3844 1.36355 12.5208H1.76355ZM5.7912 6.45395C7.15745 6.45395 8.24594 5.28453 8.24594 3.86657H7.84594C7.84594 5.08547 6.9153 6.05395 5.7912 6.05395V6.45395ZM3.33645 3.86657C3.33645 5.28453 4.42494 6.45395 5.7912 6.45395V6.05395C4.66709 6.05395 3.73645 5.08547 3.73645 3.86657H3.33645ZM5.7912 1.2792C4.42494 1.2792 3.33645 2.44861 3.33645 3.86657H3.73645C3.73645 2.64768 4.66709 1.6792 5.7912 1.6792V1.2792ZM8.24594 3.86657C8.24594 2.44861 7.15745 1.2792 5.7912 1.2792V1.6792C6.9153 1.6792 7.84594 2.64768 7.84594 3.86657H8.24594Z" fill="white"/>
</svg>
