<svg width="6" height="6" viewBox="0 0 6 6" fill="none" xmlns="http://www.w3.org/2000/svg">
<path d="M5.33339 2.6111H3.38894V0.66666C3.38894 0.451558 3.21516 0.277771 3.00005 0.277771C2.78495 0.277771 2.61117 0.451558 2.61117 0.66666V2.6111H0.666721C0.451619 2.6111 0.277832 2.78489 0.277832 2.99999C0.277832 3.2151 0.451619 3.38888 0.666721 3.38888H2.61117V5.33333C2.61117 5.54843 2.78495 5.72222 3.00005 5.72222C3.21516 5.72222 3.38894 5.54843 3.38894 5.33333V3.38888H5.33339C5.54849 3.38888 5.72228 3.2151 5.72228 2.99999C5.72228 2.78489 5.54849 2.6111 5.33339 2.6111Z" fill="white" stroke="white" stroke-width="0.5"/>
</svg>
