<svg width="18" height="18" viewBox="0 0 18 18" fill="none" xmlns="http://www.w3.org/2000/svg">
<rect x="1" y="0.5" width="16" height="17" rx="5" fill="#F7CA02" fill-opacity="0.15"/>
<path fill-rule="evenodd" clip-rule="evenodd" d="M5 1H13C15.2 1 17 2.8 17 5V13C17 15.2 15.2 17 13 17H5C2.8 17 1 15.2 1 13V5C1 2.8 2.8 1 5 1ZM13 16C14.7 16 16 14.7 16 13V5C16 3.3 14.7 2 13 2H5C3.3 2 2 3.3 2 5V13C2 14.7 3.3 16 5 16H13Z" fill="#F7CA02"/>
<path d="M13 0.85H5V1.15H13V0.85ZM17.15 5C17.15 2.71716 15.2828 0.85 13 0.85V1.15C15.1172 1.15 16.85 2.88284 16.85 5H17.15ZM17.15 13V5H16.85V13H17.15ZM13 17.15C15.2828 17.15 17.15 15.2828 17.15 13H16.85C16.85 15.1172 15.1172 16.85 13 16.85V17.15ZM5 17.15H13V16.85H5V17.15ZM0.85 13C0.85 15.2828 2.71716 17.15 5 17.15V16.85C2.88284 16.85 1.15 15.1172 1.15 13H0.85ZM0.85 5V13H1.15V5H0.85ZM5 0.85C2.71716 0.85 0.85 2.71716 0.85 5H1.15C1.15 2.88284 2.88284 1.15 5 1.15V0.85ZM15.85 13C15.85 14.6172 14.6172 15.85 13 15.85V16.15C14.7828 16.15 16.15 14.7828 16.15 13H15.85ZM15.85 5V13H16.15V5H15.85ZM13 2.15C14.6172 2.15 15.85 3.38284 15.85 5H16.15C16.15 3.21716 14.7828 1.85 13 1.85V2.15ZM5 2.15H13V1.85H5V2.15ZM2.15 5C2.15 3.38284 3.38284 2.15 5 2.15V1.85C3.21716 1.85 1.85 3.21716 1.85 5H2.15ZM2.15 13V5H1.85V13H2.15ZM5 15.85C3.38284 15.85 2.15 14.6172 2.15 13H1.85C1.85 14.7828 3.21716 16.15 5 16.15V15.85ZM13 15.85H5V16.15H13V15.85Z" fill="#F7CA02"/>
<path d="M11.3 8.3H9.7V6.7C9.7 6.3 9.4 6 9 6C8.6 6 8.3 6.3 8.3 6.7V8.3H6.7C6.3 8.3 6 8.6 6 9C6 9.4 6.3 9.7 6.7 9.7H8.3V11.3C8.3 11.7 8.6 12 9 12C9.4 12 9.7 11.7 9.7 11.3V9.7H11.3C11.7 9.7 12 9.4 12 9C12 8.6 11.7 8.3 11.3 8.3Z" fill="#F7CA02"/>
</svg>

