<svg width="16" height="16" viewBox="0 0 16 16" fill="none" xmlns="http://www.w3.org/2000/svg">
<path fill-rule="evenodd" clip-rule="evenodd" d="M1 8C1 4.14036 4.14036 1 8 1C11.8596 1 15 4.14036 15 8C15 11.8596 11.8596 15 8 15C4.14036 15 1 11.8596 1 8ZM1.77778 8C1.77778 11.4308 4.56922 14.2222 8 14.2222C11.4308 14.2222 14.2222 11.4308 14.2222 8C14.2222 4.56922 11.4308 1.77778 8 1.77778C4.56922 1.77778 1.77778 4.56922 1.77778 8Z" fill="white"/>
<path d="M8 0.75C4.00228 0.75 0.75 4.00228 0.75 8H1.25C1.25 4.27843 4.27843 1.25 8 1.25V0.75ZM15.25 8C15.25 4.00228 11.9977 0.75 8 0.75V1.25C11.7216 1.25 14.75 4.27843 14.75 8H15.25ZM8 15.25C11.9977 15.25 15.25 11.9977 15.25 8H14.75C14.75 11.7216 11.7216 14.75 8 14.75V15.25ZM0.75 8C0.75 11.9977 4.00228 15.25 8 15.25V14.75C4.27843 14.75 1.25 11.7216 1.25 8H0.75ZM8 13.9722C4.70729 13.9722 2.02778 11.2927 2.02778 8H1.52778C1.52778 11.5688 4.43115 14.4722 8 14.4722V13.9722ZM13.9722 8C13.9722 11.2927 11.2927 13.9722 8 13.9722V14.4722C11.5688 14.4722 14.4722 11.5688 14.4722 8H13.9722ZM8 2.02778C11.2927 2.02778 13.9722 4.70729 13.9722 8H14.4722C14.4722 4.43115 11.5688 1.52778 8 1.52778V2.02778ZM2.02778 8C2.02778 4.70729 4.70729 2.02778 8 2.02778V1.52778C4.43115 1.52778 1.52778 4.43115 1.52778 8H2.02778Z" fill="white"/>
<path d="M10.3334 7.6111H8.38894V5.66666C8.38894 5.45156 8.21516 5.27777 8.00005 5.27777C7.78495 5.27777 7.61117 5.45156 7.61117 5.66666V7.6111H5.66672C5.45162 7.6111 5.27783 7.78489 5.27783 7.99999C5.27783 8.2151 5.45162 8.38888 5.66672 8.38888H7.61117V10.3333C7.61117 10.5484 7.78495 10.7222 8.00005 10.7222C8.21516 10.7222 8.38894 10.5484 8.38894 10.3333V8.38888H10.3334C10.5485 8.38888 10.7223 8.2151 10.7223 7.99999C10.7223 7.78489 10.5485 7.6111 10.3334 7.6111Z" fill="white" stroke="white" stroke-width="0.5"/>
</svg>
