<svg width="1220" height="49" viewBox="0 0 1220 49" fill="none" xmlns="http://www.w3.org/2000/svg">
<path d="M882.245 46H1218.24" stroke="#DDDDDD" stroke-width="2.1489" stroke-linecap="square"/>
<g opacity="0.5">
<path fill-rule="evenodd" clip-rule="evenodd" d="M1208.34 19.5998C1208.34 16.7955 1206.05 14.5028 1203.24 14.5028C1200.44 14.5028 1198.14 16.7955 1198.14 19.5998C1198.14 20.6798 1198.48 21.6825 1199.06 22.509L1195.71 25.8586C1195.36 26.2098 1195.36 26.7816 1195.71 27.1328C1196.06 27.484 1196.63 27.484 1196.98 27.1328L1200.33 23.7785C1201.16 24.357 1202.16 24.6967 1203.24 24.6967C1206.05 24.6967 1208.34 22.4041 1208.34 19.5998ZM1199.94 19.5998C1199.94 17.7677 1201.41 16.3017 1203.24 16.3017C1205.07 16.3017 1206.54 17.7677 1206.54 19.5998C1206.54 21.4318 1205.07 22.8978 1203.24 22.8978C1201.41 22.8978 1199.94 21.4318 1199.94 19.5998Z" fill="black"/>
<path d="M1199.06 22.509L1199.3 22.3447L1199.44 22.5418L1199.27 22.7117L1199.06 22.509ZM1195.71 25.8586L1195.51 25.656L1195.51 25.6558L1195.71 25.8586ZM1195.71 27.1328L1195.91 26.9302L1195.91 26.9302L1195.71 27.1328ZM1196.98 27.1328L1197.19 27.3353L1197.19 27.3354L1196.98 27.1328ZM1200.33 23.7785L1200.13 23.5761L1200.3 23.4059L1200.5 23.5438L1200.33 23.7785ZM1203.24 14.2163C1206.2 14.2163 1208.62 16.6372 1208.62 19.5998H1208.05C1208.05 16.9537 1205.89 14.7893 1203.24 14.7893V14.2163ZM1197.86 19.5998C1197.86 16.6372 1200.28 14.2163 1203.24 14.2163V14.7893C1200.6 14.7893 1198.43 16.9537 1198.43 19.5998H1197.86ZM1198.83 22.6733C1198.22 21.8005 1197.86 20.7409 1197.86 19.5998H1198.43C1198.43 20.6187 1198.75 21.5644 1199.3 22.3447L1198.83 22.6733ZM1195.51 25.6558L1198.86 22.3062L1199.27 22.7117L1195.91 26.0613L1195.51 25.6558ZM1195.51 27.3354C1195.04 26.8723 1195.04 26.1191 1195.51 25.656L1195.91 26.0612C1195.67 26.3005 1195.67 26.6908 1195.91 26.9302L1195.51 27.3354ZM1197.19 27.3354C1196.72 27.7985 1195.97 27.7985 1195.51 27.3354L1195.91 26.9302C1196.15 27.1695 1196.54 27.1695 1196.78 26.9302L1197.19 27.3354ZM1200.53 23.981L1197.19 27.3353L1196.78 26.9303L1200.13 23.5761L1200.53 23.981ZM1203.24 24.9833C1202.1 24.9833 1201.04 24.6241 1200.17 24.0133L1200.5 23.5438C1201.28 24.0899 1202.22 24.4102 1203.24 24.4102V24.9833ZM1208.62 19.5998C1208.62 22.5623 1206.2 24.9833 1203.24 24.9833V24.4102C1205.89 24.4102 1208.05 22.2459 1208.05 19.5998H1208.62ZM1203.24 16.5883C1201.57 16.5883 1200.23 17.9259 1200.23 19.5998H1199.66C1199.66 17.6095 1201.25 16.0152 1203.24 16.0152V16.5883ZM1206.25 19.5998C1206.25 17.9259 1204.92 16.5883 1203.24 16.5883V16.0152C1205.23 16.0152 1206.83 17.6094 1206.83 19.5998H1206.25ZM1203.24 22.6113C1204.92 22.6113 1206.25 21.2736 1206.25 19.5998H1206.83C1206.83 21.5901 1205.23 23.1843 1203.24 23.1843V22.6113ZM1200.23 19.5998C1200.23 21.2736 1201.57 22.6113 1203.24 22.6113V23.1843C1201.25 23.1843 1199.66 21.5901 1199.66 19.5998H1200.23Z" fill="white"/>
</g>
<path d="M887.934 22.1495C887.934 22.5802 888.008 22.9479 888.155 23.2526C888.302 23.5572 888.507 23.8094 888.77 24.009C889.032 24.1981 889.332 24.3399 889.668 24.4345C890.015 24.5185 890.388 24.5605 890.787 24.5605C891.217 24.5605 891.585 24.5132 891.89 24.4187C892.195 24.3136 892.441 24.1823 892.631 24.0247C892.82 23.8671 892.956 23.6885 893.04 23.4889C893.124 23.2788 893.166 23.0687 893.166 22.8586C893.166 22.4279 893.066 22.1127 892.867 21.9131C892.678 21.703 892.468 21.5559 892.237 21.4718C891.837 21.3248 891.37 21.1882 890.834 21.0621C890.309 20.9255 889.657 20.7522 888.88 20.5421C888.397 20.416 887.992 20.2532 887.667 20.0536C887.351 19.8434 887.099 19.6123 886.91 19.3602C886.721 19.108 886.584 18.8401 886.5 18.5565C886.427 18.2728 886.39 17.9839 886.39 17.6898C886.39 17.1225 886.506 16.6339 886.737 16.2242C886.978 15.804 887.294 15.4573 887.682 15.1842C888.071 14.911 888.512 14.7114 889.006 14.5853C889.5 14.4487 889.999 14.3805 890.503 14.3805C891.091 14.3805 891.643 14.4593 892.158 14.6168C892.683 14.7639 893.14 14.9898 893.529 15.2945C893.928 15.5991 894.243 15.9773 894.474 16.4291C894.705 16.8703 894.821 17.3851 894.821 17.9734H892.851C892.799 17.2485 892.552 16.739 892.11 16.4448C891.669 16.1402 891.107 15.9878 890.424 15.9878C890.193 15.9878 889.957 16.0141 889.715 16.0666C889.474 16.1087 889.253 16.1874 889.053 16.303C888.854 16.4081 888.686 16.5551 888.549 16.7443C888.423 16.9334 888.36 17.1697 888.36 17.4534C888.36 17.8526 888.481 18.1678 888.722 18.3989C888.975 18.6195 889.3 18.7876 889.699 18.9032C889.741 18.9137 889.904 18.961 890.188 19.045C890.482 19.1185 890.808 19.2026 891.165 19.2971C891.522 19.3917 891.869 19.4862 892.205 19.5808C892.552 19.6648 892.799 19.7279 892.946 19.7699C893.313 19.8855 893.634 20.0431 893.907 20.2427C894.18 20.4423 894.406 20.6734 894.585 20.936C894.774 21.1882 894.91 21.4613 894.994 21.7555C895.089 22.0496 895.136 22.3438 895.136 22.638C895.136 23.2683 895.005 23.8094 894.742 24.2611C894.49 24.7023 894.154 25.0648 893.734 25.3485C893.313 25.6321 892.835 25.837 892.3 25.963C891.764 26.0996 891.217 26.1679 890.661 26.1679C890.02 26.1679 889.416 26.0891 888.848 25.9315C888.281 25.7739 887.787 25.5323 887.367 25.2066C886.947 24.8809 886.611 24.466 886.359 23.9617C886.106 23.4469 885.975 22.8428 885.965 22.1495H887.934ZM902.203 21.1094C902.182 20.8257 902.119 20.5526 902.014 20.2899C901.919 20.0273 901.783 19.8014 901.604 19.6123C901.436 19.4127 901.226 19.2551 900.974 19.1396C900.732 19.0135 900.459 18.9505 900.154 18.9505C899.839 18.9505 899.55 19.0082 899.288 19.1238C899.035 19.2289 898.815 19.3812 898.626 19.5808C898.447 19.7699 898.3 19.9958 898.184 20.2584C898.079 20.5211 898.022 20.8047 898.011 21.1094H902.203ZM898.011 22.2913C898.011 22.6065 898.053 22.9111 898.137 23.2053C898.232 23.4994 898.368 23.7568 898.547 23.9775C898.725 24.1981 898.951 24.3767 899.224 24.5132C899.498 24.6393 899.823 24.7023 900.202 24.7023C900.727 24.7023 901.147 24.592 901.462 24.3714C901.788 24.1403 902.03 23.7989 902.187 23.3471H903.889C903.794 23.7883 903.632 24.1823 903.401 24.529C903.169 24.8757 902.891 25.1699 902.565 25.4115C902.24 25.6426 901.872 25.816 901.462 25.9315C901.063 26.0576 900.643 26.1206 900.202 26.1206C899.561 26.1206 898.993 26.0156 898.5 25.8054C898.006 25.5953 897.586 25.3012 897.239 24.923C896.903 24.5448 896.645 24.093 896.467 23.5677C896.299 23.0424 896.215 22.4646 896.215 21.8343C896.215 21.2565 896.304 20.7102 896.482 20.1954C896.672 19.6701 896.934 19.2131 897.27 18.8244C897.617 18.4252 898.032 18.11 898.515 17.8789C898.999 17.6477 899.545 17.5322 900.154 17.5322C900.795 17.5322 901.368 17.6688 901.872 17.9419C902.387 18.2045 902.812 18.5565 903.148 18.9977C903.485 19.439 903.726 19.9485 903.873 20.5263C904.031 21.0936 904.073 21.6819 903.999 22.2913H898.011ZM912.189 24.0878C912.189 24.3084 912.215 24.466 912.267 24.5605C912.33 24.6551 912.446 24.7023 912.614 24.7023C912.667 24.7023 912.73 24.7023 912.803 24.7023C912.877 24.7023 912.961 24.6918 913.055 24.6708V25.9158C912.992 25.9368 912.908 25.9578 912.803 25.9788C912.709 26.0103 912.609 26.0366 912.504 26.0576C912.399 26.0786 912.294 26.0944 912.189 26.1049C912.083 26.1154 911.994 26.1206 911.921 26.1206C911.553 26.1206 911.248 26.0471 911.007 25.9C910.765 25.7529 910.607 25.4955 910.534 25.1278C910.177 25.4745 909.735 25.7267 909.21 25.8842C908.695 26.0418 908.196 26.1206 907.713 26.1206C907.345 26.1206 906.993 26.0681 906.657 25.963C906.321 25.8685 906.022 25.7267 905.759 25.5376C905.507 25.3379 905.302 25.0911 905.144 24.7969C904.997 24.4922 904.924 24.1403 904.924 23.7411C904.924 23.2368 905.013 22.8271 905.192 22.5119C905.381 22.1967 905.622 21.9498 905.917 21.7712C906.221 21.5926 906.557 21.4666 906.925 21.393C907.303 21.309 907.682 21.246 908.06 21.2039C908.385 21.1409 908.695 21.0989 908.99 21.0779C909.284 21.0464 909.541 20.9991 909.762 20.936C909.993 20.873 910.171 20.7785 910.298 20.6524C910.434 20.5158 910.502 20.3162 910.502 20.0536C910.502 19.8224 910.445 19.6333 910.329 19.4862C910.224 19.3392 910.087 19.2289 909.919 19.1553C909.762 19.0713 909.583 19.0187 909.384 18.9977C909.184 18.9662 908.995 18.9505 908.816 18.9505C908.312 18.9505 907.897 19.0555 907.571 19.2656C907.246 19.4757 907.062 19.8014 907.02 20.2427H905.223C905.255 19.7174 905.381 19.2814 905.601 18.9347C905.822 18.588 906.1 18.3096 906.437 18.0995C906.783 17.8894 907.172 17.7423 907.603 17.6583C908.034 17.5742 908.475 17.5322 908.927 17.5322C909.326 17.5322 909.72 17.5742 910.108 17.6583C910.497 17.7423 910.844 17.8789 911.148 18.068C911.464 18.2571 911.716 18.504 911.905 18.8086C912.094 19.1028 912.189 19.4652 912.189 19.896V24.0878ZM910.392 21.8185C910.119 21.9971 909.783 22.1074 909.384 22.1495C908.984 22.181 908.585 22.2335 908.186 22.307C907.997 22.3386 907.813 22.3858 907.634 22.4489C907.456 22.5014 907.298 22.5802 907.162 22.6852C907.025 22.7798 906.915 22.9111 906.831 23.0792C906.757 23.2368 906.72 23.4312 906.72 23.6623C906.72 23.8619 906.778 24.03 906.894 24.1666C907.009 24.3031 907.146 24.4134 907.303 24.4975C907.471 24.571 907.65 24.6236 907.839 24.6551C908.039 24.6866 908.217 24.7023 908.375 24.7023C908.575 24.7023 908.79 24.6761 909.021 24.6236C909.252 24.571 909.468 24.4817 909.667 24.3557C909.877 24.2296 910.051 24.072 910.187 23.8829C910.324 23.6833 910.392 23.4417 910.392 23.158V21.8185ZM914.122 17.7528H915.808V19.3287H915.839C915.892 19.108 915.992 18.8927 916.139 18.6826C916.296 18.4724 916.48 18.2833 916.69 18.1153C916.911 17.9367 917.152 17.7948 917.415 17.6898C917.678 17.5847 917.946 17.5322 918.219 17.5322C918.429 17.5322 918.571 17.5374 918.644 17.5479C918.728 17.5584 918.812 17.569 918.896 17.5795V19.3129C918.77 19.2919 918.639 19.2761 918.502 19.2656C918.376 19.2446 918.25 19.2341 918.124 19.2341C917.82 19.2341 917.531 19.2971 917.258 19.4232C916.995 19.5388 916.764 19.7174 916.564 19.959C916.365 20.1901 916.207 20.479 916.091 20.8257C915.976 21.1724 915.918 21.5716 915.918 22.0234V25.9H914.122V17.7528ZM924.884 20.479C924.811 19.9748 924.606 19.5966 924.27 19.3444C923.944 19.0818 923.529 18.9505 923.025 18.9505C922.794 18.9505 922.547 18.9925 922.284 19.0765C922.022 19.1501 921.78 19.2971 921.559 19.5178C921.339 19.7279 921.155 20.0273 921.008 20.416C920.861 20.7942 920.787 21.2932 920.787 21.9131C920.787 22.2493 920.824 22.5854 920.897 22.9216C920.982 23.2578 921.108 23.5572 921.276 23.8199C921.454 24.0825 921.68 24.2979 921.953 24.466C922.226 24.6236 922.557 24.7023 922.946 24.7023C923.471 24.7023 923.902 24.5395 924.238 24.2138C924.585 23.8882 924.8 23.4312 924.884 22.8428H926.681C926.513 23.9039 926.108 24.7181 925.467 25.2854C924.837 25.8422 923.997 26.1206 922.946 26.1206C922.305 26.1206 921.738 26.0156 921.244 25.8054C920.761 25.5848 920.351 25.2907 920.015 24.923C919.679 24.5448 919.421 24.0983 919.243 23.5835C919.075 23.0687 918.991 22.5119 918.991 21.9131C918.991 21.3037 919.075 20.7312 919.243 20.1954C919.411 19.6596 919.663 19.1973 919.999 18.8086C920.335 18.4094 920.75 18.0995 921.244 17.8789C921.748 17.6477 922.337 17.5322 923.009 17.5322C923.482 17.5322 923.928 17.5952 924.349 17.7213C924.779 17.8368 925.158 18.0154 925.483 18.2571C925.819 18.4987 926.093 18.8034 926.303 19.1711C926.513 19.5388 926.639 19.9748 926.681 20.479H924.884ZM928.141 14.6484H929.938V18.8244H929.969C930.19 18.4567 930.515 18.152 930.946 17.9104C931.387 17.6583 931.876 17.5322 932.412 17.5322C933.305 17.5322 934.009 17.7633 934.523 18.2256C935.038 18.6878 935.296 19.3812 935.296 20.3057V25.9H933.499V20.7785C933.478 20.1376 933.342 19.6754 933.089 19.3917C932.837 19.0975 932.443 18.9505 931.907 18.9505C931.603 18.9505 931.33 19.0082 931.088 19.1238C930.846 19.2289 930.642 19.3812 930.473 19.5808C930.305 19.7699 930.174 19.9958 930.079 20.2584C929.985 20.5211 929.938 20.7995 929.938 21.0936V25.9H928.141V14.6484ZM940.678 17.7528H942.648L944.775 23.8356H944.807L946.871 17.7528H948.746L945.579 26.3412C945.432 26.7089 945.285 27.0609 945.137 27.3971C945.001 27.7333 944.828 28.0274 944.617 28.2796C944.418 28.5422 944.166 28.7471 943.861 28.8941C943.556 29.0517 943.168 29.1305 942.695 29.1305C942.275 29.1305 941.86 29.099 941.45 29.036V27.5231C941.597 27.5441 941.739 27.5652 941.875 27.5862C942.012 27.6177 942.154 27.6334 942.301 27.6334C942.511 27.6334 942.684 27.6072 942.821 27.5547C942.957 27.5021 943.068 27.4233 943.152 27.3183C943.246 27.2237 943.325 27.1082 943.388 26.9716C943.451 26.835 943.509 26.6774 943.562 26.4988L943.766 25.8685L940.678 17.7528ZM953.482 26.1206C952.831 26.1206 952.248 26.0156 951.733 25.8054C951.229 25.5848 950.798 25.2854 950.441 24.9072C950.094 24.529 949.826 24.0773 949.637 23.552C949.459 23.0267 949.369 22.4489 949.369 21.8185C949.369 21.1987 949.459 20.6261 949.637 20.1008C949.826 19.5755 950.094 19.1238 950.441 18.7456C950.798 18.3674 951.229 18.0732 951.733 17.8631C952.248 17.6425 952.831 17.5322 953.482 17.5322C954.134 17.5322 954.712 17.6425 955.216 17.8631C955.731 18.0732 956.161 18.3674 956.508 18.7456C956.865 19.1238 957.133 19.5755 957.312 20.1008C957.501 20.6261 957.595 21.1987 957.595 21.8185C957.595 22.4489 957.501 23.0267 957.312 23.552C957.133 24.0773 956.865 24.529 956.508 24.9072C956.161 25.2854 955.731 25.5848 955.216 25.8054C954.712 26.0156 954.134 26.1206 953.482 26.1206ZM953.482 24.7023C953.882 24.7023 954.228 24.6183 954.523 24.4502C954.817 24.2821 955.058 24.0615 955.247 23.7883C955.437 23.5152 955.573 23.2105 955.657 22.8743C955.752 22.5277 955.799 22.1757 955.799 21.8185C955.799 21.4718 955.752 21.1251 955.657 20.7785C955.573 20.4318 955.437 20.1271 955.247 19.8645C955.058 19.5913 954.817 19.3707 954.523 19.2026C954.228 19.0345 953.882 18.9505 953.482 18.9505C953.083 18.9505 952.737 19.0345 952.442 19.2026C952.148 19.3707 951.907 19.5913 951.718 19.8645C951.528 20.1271 951.387 20.4318 951.292 20.7785C951.208 21.1251 951.166 21.4718 951.166 21.8185C951.166 22.1757 951.208 22.5277 951.292 22.8743C951.387 23.2105 951.528 23.5152 951.718 23.7883C951.907 24.0615 952.148 24.2821 952.442 24.4502C952.737 24.6183 953.083 24.7023 953.482 24.7023ZM966.243 25.9H964.478V24.7654H964.447C964.226 25.1751 963.895 25.506 963.454 25.7582C963.023 25.9998 962.582 26.1206 962.13 26.1206C961.059 26.1206 960.281 25.858 959.798 25.3327C959.325 24.7969 959.089 23.9932 959.089 22.9216V17.7528H960.885V22.7483C960.885 23.4627 961.022 23.9669 961.295 24.2611C961.568 24.5553 961.952 24.7023 962.446 24.7023C962.824 24.7023 963.139 24.6446 963.391 24.529C963.643 24.4134 963.848 24.2611 964.006 24.072C964.163 23.8724 964.274 23.636 964.337 23.3629C964.41 23.0897 964.447 22.7956 964.447 22.4804V17.7528H966.243V25.9ZM968.138 17.7528H969.824V19.3287H969.856C969.908 19.108 970.008 18.8927 970.155 18.6826C970.313 18.4724 970.496 18.2833 970.707 18.1153C970.927 17.9367 971.169 17.7948 971.431 17.6898C971.694 17.5847 971.962 17.5322 972.235 17.5322C972.445 17.5322 972.587 17.5374 972.661 17.5479C972.745 17.5584 972.829 17.569 972.913 17.5795V19.3129C972.787 19.2919 972.655 19.2761 972.519 19.2656C972.393 19.2446 972.267 19.2341 972.141 19.2341C971.836 19.2341 971.547 19.2971 971.274 19.4232C971.011 19.5388 970.78 19.7174 970.58 19.959C970.381 20.1901 970.223 20.479 970.108 20.8257C969.992 21.1724 969.934 21.5716 969.934 22.0234V25.9H968.138V17.7528ZM979.419 23.2841C979.472 23.8094 979.671 24.1771 980.018 24.3872C980.365 24.5973 980.78 24.7023 981.263 24.7023C981.431 24.7023 981.62 24.6918 981.83 24.6708C982.051 24.6393 982.256 24.5868 982.445 24.5132C982.634 24.4397 982.786 24.3346 982.902 24.1981C983.028 24.051 983.086 23.8619 983.075 23.6308C983.065 23.3996 982.981 23.2105 982.823 23.0635C982.665 22.9164 982.461 22.8008 982.208 22.7168C981.967 22.6222 981.688 22.5434 981.373 22.4804C981.058 22.4173 980.738 22.3491 980.412 22.2755C980.076 22.202 979.75 22.1127 979.435 22.0076C979.13 21.9026 978.852 21.7607 978.6 21.5821C978.358 21.4035 978.164 21.1777 978.017 20.9045C977.87 20.6209 977.796 20.2742 977.796 19.8645C977.796 19.4232 977.901 19.0555 978.111 18.7614C978.332 18.4567 978.605 18.2151 978.931 18.0365C979.267 17.8474 979.635 17.716 980.034 17.6425C980.443 17.569 980.832 17.5322 981.2 17.5322C981.62 17.5322 982.019 17.5795 982.398 17.674C982.786 17.7581 983.133 17.8999 983.438 18.0995C983.753 18.2991 984.01 18.5617 984.21 18.8874C984.42 19.2026 984.551 19.5861 984.604 20.0378H982.728C982.644 19.6071 982.445 19.3182 982.13 19.1711C981.825 19.024 981.473 18.9505 981.074 18.9505C980.948 18.9505 980.795 18.961 980.617 18.982C980.449 19.003 980.286 19.045 980.128 19.108C979.981 19.1606 979.855 19.2446 979.75 19.3602C979.645 19.4652 979.593 19.6071 979.593 19.7857C979.593 20.0063 979.666 20.1849 979.813 20.3215C979.971 20.458 980.17 20.5736 980.412 20.6681C980.664 20.7522 980.948 20.8257 981.263 20.8888C981.578 20.9518 981.904 21.0201 982.24 21.0936C982.566 21.1672 982.886 21.2565 983.201 21.3615C983.516 21.4666 983.795 21.6084 984.036 21.787C984.289 21.9656 984.488 22.1915 984.635 22.4646C984.793 22.7378 984.872 23.074 984.872 23.4732C984.872 23.9564 984.761 24.3662 984.541 24.7023C984.32 25.0385 984.031 25.3117 983.674 25.5218C983.327 25.7319 982.939 25.8842 982.508 25.9788C982.077 26.0733 981.652 26.1206 981.231 26.1206C980.717 26.1206 980.239 26.0628 979.797 25.9473C979.367 25.8317 978.988 25.6584 978.663 25.4272C978.348 25.1856 978.095 24.8915 977.906 24.5448C977.728 24.1876 977.633 23.7673 977.623 23.2841H979.419ZM986.236 14.6484H988.032V18.8244H988.064C988.284 18.4567 988.61 18.152 989.041 17.9104C989.482 17.6583 989.97 17.5322 990.506 17.5322C991.399 17.5322 992.103 17.7633 992.618 18.2256C993.133 18.6878 993.39 19.3812 993.39 20.3057V25.9H991.594V20.7785C991.573 20.1376 991.436 19.6754 991.184 19.3917C990.932 19.0975 990.538 18.9505 990.002 18.9505C989.697 18.9505 989.424 19.0082 989.182 19.1238C988.941 19.2289 988.736 19.3812 988.568 19.5808C988.4 19.7699 988.268 19.9958 988.174 20.2584C988.079 20.5211 988.032 20.7995 988.032 21.0936V25.9H986.236V14.6484ZM995.332 14.6484H997.128V16.3503H995.332V14.6484ZM995.332 17.7528H997.128V25.9H995.332V17.7528ZM999.133 17.7528H1000.83V18.8559H1000.87C1001.12 18.3831 1001.47 18.047 1001.92 17.8474C1002.37 17.6372 1002.86 17.5322 1003.39 17.5322C1004.03 17.5322 1004.59 17.6477 1005.06 17.8789C1005.54 18.0995 1005.94 18.4094 1006.26 18.8086C1006.57 19.1973 1006.81 19.6543 1006.96 20.1796C1007.12 20.7049 1007.2 21.267 1007.2 21.8658C1007.2 22.4121 1007.13 22.9426 1006.98 23.4574C1006.84 23.9722 1006.63 24.4292 1006.33 24.8284C1006.05 25.2171 1005.69 25.5323 1005.25 25.7739C1004.81 26.0051 1004.29 26.1206 1003.69 26.1206C1003.42 26.1206 1003.16 26.0944 1002.9 26.0418C1002.64 25.9998 1002.38 25.9263 1002.14 25.8212C1001.9 25.7162 1001.68 25.5848 1001.47 25.4272C1001.27 25.2592 1001.1 25.0648 1000.96 24.8442H1000.93V28.9099H999.133V17.7528ZM1005.4 21.8343C1005.4 21.4666 1005.36 21.1094 1005.26 20.7627C1005.17 20.416 1005.03 20.1113 1004.84 19.8487C1004.65 19.5755 1004.41 19.3602 1004.13 19.2026C1003.84 19.0345 1003.52 18.9505 1003.15 18.9505C1002.39 18.9505 1001.82 19.2131 1001.43 19.7384C1001.06 20.2637 1000.87 20.9623 1000.87 21.8343C1000.87 22.244 1000.91 22.6275 1001.01 22.9847C1001.11 23.3313 1001.27 23.6308 1001.47 23.8829C1001.66 24.135 1001.9 24.3346 1002.17 24.4817C1002.46 24.6288 1002.78 24.7023 1003.15 24.7023C1003.56 24.7023 1003.91 24.6183 1004.19 24.4502C1004.48 24.2821 1004.71 24.0668 1004.88 23.8041C1005.07 23.531 1005.21 23.2263 1005.28 22.8901C1005.36 22.5434 1005.4 22.1915 1005.4 21.8343ZM1008.72 17.7528H1010.42V18.8874H1010.47C1010.61 18.6878 1010.75 18.504 1010.91 18.3359C1011.07 18.1678 1011.24 18.026 1011.43 17.9104C1011.63 17.7948 1011.86 17.7055 1012.11 17.6425C1012.36 17.569 1012.65 17.5322 1012.97 17.5322C1013.47 17.5322 1013.92 17.6425 1014.35 17.8631C1014.78 18.0837 1015.08 18.4252 1015.26 18.8874C1015.56 18.4672 1015.92 18.1363 1016.31 17.8946C1016.71 17.653 1017.21 17.5322 1017.81 17.5322C1018.67 17.5322 1019.34 17.7423 1019.81 18.1625C1020.3 18.5828 1020.54 19.2866 1020.54 20.2742V25.9H1018.74V21.1409C1018.74 20.8152 1018.73 20.5211 1018.71 20.2584C1018.69 19.9853 1018.63 19.7541 1018.52 19.565C1018.43 19.3654 1018.28 19.2131 1018.08 19.108C1017.88 19.003 1017.61 18.9505 1017.26 18.9505C1016.65 18.9505 1016.21 19.1396 1015.94 19.5178C1015.66 19.896 1015.53 20.4318 1015.53 21.1251V25.9H1013.73V20.6681C1013.73 20.1008 1013.63 19.6754 1013.42 19.3917C1013.22 19.0975 1012.84 18.9505 1012.3 18.9505C1012.07 18.9505 1011.84 18.9977 1011.62 19.0923C1011.41 19.1868 1011.22 19.3234 1011.05 19.502C1010.89 19.6806 1010.76 19.9012 1010.66 20.1639C1010.56 20.4265 1010.52 20.7259 1010.52 21.0621V25.9H1008.72V17.7528ZM1028.03 21.1094C1028 20.8257 1027.94 20.5526 1027.84 20.2899C1027.74 20.0273 1027.61 19.8014 1027.43 19.6123C1027.26 19.4127 1027.05 19.2551 1026.8 19.1396C1026.55 19.0135 1026.28 18.9505 1025.98 18.9505C1025.66 18.9505 1025.37 19.0082 1025.11 19.1238C1024.86 19.2289 1024.64 19.3812 1024.45 19.5808C1024.27 19.7699 1024.12 19.9958 1024.01 20.2584C1023.9 20.5211 1023.84 20.8047 1023.83 21.1094H1028.03ZM1023.83 22.2913C1023.83 22.6065 1023.88 22.9111 1023.96 23.2053C1024.05 23.4994 1024.19 23.7568 1024.37 23.9775C1024.55 24.1981 1024.77 24.3767 1025.05 24.5132C1025.32 24.6393 1025.65 24.7023 1026.02 24.7023C1026.55 24.7023 1026.97 24.592 1027.28 24.3714C1027.61 24.1403 1027.85 23.7989 1028.01 23.3471H1029.71C1029.62 23.7883 1029.45 24.1823 1029.22 24.529C1028.99 24.8757 1028.71 25.1699 1028.39 25.4115C1028.06 25.6426 1027.69 25.816 1027.28 25.9315C1026.89 26.0576 1026.47 26.1206 1026.02 26.1206C1025.38 26.1206 1024.82 26.0156 1024.32 25.8054C1023.83 25.5953 1023.41 25.3012 1023.06 24.923C1022.73 24.5448 1022.47 24.093 1022.29 23.5677C1022.12 23.0424 1022.04 22.4646 1022.04 21.8343C1022.04 21.2565 1022.13 20.7102 1022.31 20.1954C1022.49 19.6701 1022.76 19.2131 1023.09 18.8244C1023.44 18.4252 1023.85 18.11 1024.34 17.8789C1024.82 17.6477 1025.37 17.5322 1025.98 17.5322C1026.62 17.5322 1027.19 17.6688 1027.69 17.9419C1028.21 18.2045 1028.63 18.5565 1028.97 18.9977C1029.31 19.439 1029.55 19.9485 1029.7 20.5263C1029.85 21.0936 1029.9 21.6819 1029.82 22.2913H1023.83ZM1031.19 17.7528H1032.89V18.9505L1032.92 18.982C1033.19 18.5302 1033.55 18.1783 1033.99 17.9261C1034.43 17.6635 1034.92 17.5322 1035.46 17.5322C1036.35 17.5322 1037.06 17.7633 1037.57 18.2256C1038.08 18.6878 1038.34 19.3812 1038.34 20.3057V25.9H1036.55V20.7785C1036.52 20.1376 1036.39 19.6754 1036.14 19.3917C1035.88 19.0975 1035.49 18.9505 1034.95 18.9505C1034.65 18.9505 1034.38 19.0082 1034.13 19.1238C1033.89 19.2289 1033.69 19.3812 1033.52 19.5808C1033.35 19.7699 1033.22 19.9958 1033.13 20.2584C1033.03 20.5211 1032.98 20.7995 1032.98 21.0936V25.9H1031.19V17.7528ZM1039.42 17.7528H1040.77V15.3102H1042.57V17.7528H1044.19V19.0923H1042.57V23.4417C1042.57 23.6308 1042.57 23.7936 1042.58 23.9302C1042.61 24.0668 1042.64 24.1823 1042.69 24.2769C1042.76 24.3714 1042.85 24.445 1042.96 24.4975C1043.08 24.5395 1043.24 24.5605 1043.44 24.5605C1043.56 24.5605 1043.69 24.5605 1043.81 24.5605C1043.94 24.55 1044.07 24.529 1044.19 24.4975V25.8842C1043.99 25.9053 1043.8 25.9263 1043.61 25.9473C1043.42 25.9683 1043.23 25.9788 1043.03 25.9788C1042.55 25.9788 1042.17 25.9368 1041.88 25.8527C1041.59 25.7582 1041.37 25.6269 1041.2 25.4588C1041.04 25.2802 1040.93 25.0595 1040.87 24.7969C1040.81 24.5343 1040.78 24.2348 1040.77 23.8987V19.0923H1039.42V17.7528ZM1046.84 23.2841C1046.89 23.8094 1047.09 24.1771 1047.44 24.3872C1047.79 24.5973 1048.2 24.7023 1048.68 24.7023C1048.85 24.7023 1049.04 24.6918 1049.25 24.6708C1049.47 24.6393 1049.68 24.5868 1049.87 24.5132C1050.05 24.4397 1050.21 24.3346 1050.32 24.1981C1050.45 24.051 1050.51 23.8619 1050.5 23.6308C1050.49 23.3996 1050.4 23.2105 1050.24 23.0635C1050.09 22.9164 1049.88 22.8008 1049.63 22.7168C1049.39 22.6222 1049.11 22.5434 1048.79 22.4804C1048.48 22.4173 1048.16 22.3491 1047.83 22.2755C1047.5 22.202 1047.17 22.1127 1046.86 22.0076C1046.55 21.9026 1046.27 21.7607 1046.02 21.5821C1045.78 21.4035 1045.58 21.1777 1045.44 20.9045C1045.29 20.6209 1045.22 20.2742 1045.22 19.8645C1045.22 19.4232 1045.32 19.0555 1045.53 18.7614C1045.75 18.4567 1046.03 18.2151 1046.35 18.0365C1046.69 17.8474 1047.05 17.716 1047.45 17.6425C1047.86 17.569 1048.25 17.5322 1048.62 17.5322C1049.04 17.5322 1049.44 17.5795 1049.82 17.674C1050.21 17.7581 1050.55 17.8999 1050.86 18.0995C1051.17 18.2991 1051.43 18.5617 1051.63 18.8874C1051.84 19.2026 1051.97 19.5861 1052.02 20.0378H1050.15C1050.06 19.6071 1049.87 19.3182 1049.55 19.1711C1049.25 19.024 1048.89 18.9505 1048.49 18.9505C1048.37 18.9505 1048.22 18.961 1048.04 18.982C1047.87 19.003 1047.71 19.045 1047.55 19.108C1047.4 19.1606 1047.28 19.2446 1047.17 19.3602C1047.07 19.4652 1047.01 19.6071 1047.01 19.7857C1047.01 20.0063 1047.09 20.1849 1047.23 20.3215C1047.39 20.458 1047.59 20.5736 1047.83 20.6681C1048.08 20.7522 1048.37 20.8257 1048.68 20.8888C1049 20.9518 1049.32 21.0201 1049.66 21.0936C1049.99 21.1672 1050.31 21.2565 1050.62 21.3615C1050.94 21.4666 1051.22 21.6084 1051.46 21.787C1051.71 21.9656 1051.91 22.1915 1052.06 22.4646C1052.21 22.7378 1052.29 23.074 1052.29 23.4732C1052.29 23.9564 1052.18 24.3662 1051.96 24.7023C1051.74 25.0385 1051.45 25.3117 1051.09 25.5218C1050.75 25.7319 1050.36 25.8842 1049.93 25.9788C1049.5 26.0733 1049.07 26.1206 1048.65 26.1206C1048.14 26.1206 1047.66 26.0628 1047.22 25.9473C1046.79 25.8317 1046.41 25.6584 1046.08 25.4272C1045.77 25.1856 1045.52 24.8915 1045.33 24.5448C1045.15 24.1876 1045.05 23.7673 1045.04 23.2841H1046.84Z" fill="black"/>
<path d="M310.255 43.664C310.255 43.7484 310.296 43.8295 310.368 43.8871C310.438 43.9421 310.527 43.9699 310.62 43.9656C310.713 43.9616 310.798 43.9265 310.86 43.8666L315.643 39.2848L315.281 39.0004L310.498 43.5823C310.55 43.5326 310.639 43.5286 310.697 43.5736C310.753 43.618 310.756 43.6975 310.707 43.7458L310.344 43.4614C310.286 43.5174 310.255 43.5892 310.255 43.664L310.255 43.664Z" fill="#3755B0" stroke="#3755B0"/>
<path fill-rule="evenodd" clip-rule="evenodd" d="M310.345 43.8662L305.564 39.2844L305.926 39L310.617 43.4962C310.651 43.4999 310.682 43.5161 310.706 43.5443L310.706 43.5443L310.687 43.563L310.707 43.5819L310.861 43.461C310.988 43.5839 310.978 43.7745 310.836 43.8881C310.693 43.999 310.473 43.9894 310.345 43.8662ZM310.687 43.563L310.498 43.7454C310.447 43.6844 310.451 43.5903 310.507 43.5354C310.539 43.5047 310.579 43.492 310.617 43.4962L310.687 43.563Z" fill="#3755B0"/>
<path d="M305.564 39.2844L305.218 39.6454L304.802 39.2466L305.255 38.891L305.564 39.2844ZM310.345 43.8662L310.691 43.5052L310.691 43.5056L310.345 43.8662ZM305.926 39L305.618 38.6066L305.959 38.3388L306.272 38.639L305.926 39ZM310.706 43.5443L311.087 43.2205L310.367 43.9116L310.706 43.5443ZM310.706 43.5443L310.359 43.1846L310.699 42.8567L311.046 43.177L310.706 43.5443ZM310.707 43.5819L311.015 43.9754L310.674 44.2429L310.361 43.9428L310.707 43.5819ZM310.861 43.461L310.552 43.0675L310.895 42.7992L311.208 43.101L310.861 43.461ZM310.836 43.8881L311.148 44.279L311.143 44.2825L310.836 43.8881ZM310.498 43.7454L310.845 44.1052L310.459 44.4779L310.115 44.0664L310.498 43.7454ZM310.507 43.5354L310.157 43.1782L310.16 43.1754L310.507 43.5354ZM305.91 38.9234L310.691 43.5052L309.999 44.2272L305.218 39.6454L305.91 38.9234ZM306.235 39.3934L305.872 39.6778L305.255 38.891L305.618 38.6066L306.235 39.3934ZM310.271 43.8572L305.58 39.361L306.272 38.639L310.963 43.1353L310.271 43.8572ZM310.672 42.9992C310.833 43.017 310.981 43.0958 311.087 43.2205L310.325 43.8681C310.383 43.9364 310.468 43.9828 310.563 43.9932L310.672 42.9992ZM310.367 43.9116L310.367 43.9116L311.046 43.177L311.046 43.177L310.367 43.9116ZM311.054 43.9041L311.034 43.9227L310.34 43.2032L310.359 43.1846L311.054 43.9041ZM310.361 43.9428L310.341 43.924L311.033 43.202L311.053 43.2209L310.361 43.9428ZM311.169 43.8546L311.015 43.9754L310.398 43.1884L310.552 43.0675L311.169 43.8546ZM310.524 43.4972C310.49 43.5241 310.454 43.577 310.45 43.6494C310.446 43.7224 310.476 43.7846 310.514 43.8211L311.208 43.101C311.56 43.4408 311.518 43.9838 311.148 44.2789L310.524 43.4972ZM310.691 43.5056C310.657 43.4726 310.623 43.4661 310.607 43.4654C310.59 43.4647 310.561 43.4683 310.528 43.4937L311.143 44.2825C310.81 44.542 310.311 44.5267 309.998 44.2268L310.691 43.5056ZM311.034 43.9227L310.845 44.1052L310.151 43.3857L310.34 43.2032L311.034 43.9227ZM310.115 44.0664C309.901 43.8108 309.909 43.4208 310.157 43.1782L310.857 43.8925C310.992 43.7598 310.993 43.558 310.881 43.4244L310.115 44.0664ZM310.16 43.1754C310.297 43.0431 310.484 42.9785 310.672 42.9992L310.563 43.9932C310.674 44.0055 310.78 43.9664 310.854 43.8954L310.16 43.1754ZM310.341 43.924L310.271 43.8572L310.963 43.1353L311.033 43.202L310.341 43.924Z" fill="#3755B0"/>
<path d="M4.164 40.708V37.712H5.872C6.124 37.712 6.36667 37.7307 6.6 37.768C6.83333 37.8053 7.03867 37.88 7.216 37.992C7.39333 38.0947 7.53333 38.244 7.636 38.44C7.748 38.636 7.804 38.8927 7.804 39.21C7.804 39.5273 7.748 39.784 7.636 39.98C7.53333 40.176 7.39333 40.33 7.216 40.442C7.03867 40.5447 6.83333 40.6147 6.6 40.652C6.36667 40.6893 6.124 40.708 5.872 40.708H4.164ZM1.966 36.004V46H4.164V42.416H6.474C7.09933 42.416 7.63133 42.3273 8.07 42.15C8.50867 41.9633 8.86333 41.7207 9.134 41.422C9.414 41.1233 9.61467 40.7827 9.736 40.4C9.86667 40.008 9.932 39.6113 9.932 39.21C9.932 38.7993 9.86667 38.4027 9.736 38.02C9.61467 37.6373 9.414 37.2967 9.134 36.998C8.86333 36.6993 8.50867 36.4613 8.07 36.284C7.63133 36.0973 7.09933 36.004 6.474 36.004H1.966ZM11.0099 40.988C11.0379 40.5213 11.1546 40.134 11.3599 39.826C11.5652 39.518 11.8266 39.2707 12.1439 39.084C12.4612 38.8973 12.8159 38.7667 13.2079 38.692C13.6092 38.608 14.0106 38.566 14.4119 38.566C14.7759 38.566 15.1446 38.594 15.5179 38.65C15.8912 38.6967 16.2319 38.7947 16.5399 38.944C16.8479 39.0933 17.0999 39.3033 17.2959 39.574C17.4919 39.8353 17.5899 40.1853 17.5899 40.624V44.39C17.5899 44.7167 17.6086 45.0293 17.6459 45.328C17.6832 45.6267 17.7486 45.8507 17.8419 46H15.8259C15.7886 45.888 15.7559 45.776 15.7279 45.664C15.7092 45.5427 15.6952 45.4213 15.6859 45.3C15.3686 45.6267 14.9952 45.8553 14.5659 45.986C14.1366 46.1167 13.6979 46.182 13.2499 46.182C12.9046 46.182 12.5826 46.14 12.2839 46.056C11.9852 45.972 11.7239 45.8413 11.4999 45.664C11.2759 45.4867 11.0986 45.2627 10.9679 44.992C10.8466 44.7213 10.7859 44.3993 10.7859 44.026C10.7859 43.6153 10.8559 43.2793 10.9959 43.018C11.1452 42.7473 11.3319 42.5327 11.5559 42.374C11.7892 42.2153 12.0506 42.0987 12.3399 42.024C12.6386 41.94 12.9372 41.8747 13.2359 41.828C13.5346 41.7813 13.8286 41.744 14.1179 41.716C14.4072 41.688 14.6639 41.646 14.8879 41.59C15.1119 41.534 15.2892 41.4547 15.4199 41.352C15.5506 41.24 15.6112 41.0813 15.6019 40.876C15.6019 40.6613 15.5646 40.4933 15.4899 40.372C15.4246 40.2413 15.3312 40.1433 15.2099 40.078C15.0979 40.0033 14.9626 39.9567 14.8039 39.938C14.6546 39.91 14.4912 39.896 14.3139 39.896C13.9219 39.896 13.6139 39.98 13.3899 40.148C13.1659 40.316 13.0352 40.596 12.9979 40.988H11.0099ZM15.6019 42.458C15.5179 42.5327 15.4106 42.5933 15.2799 42.64C15.1586 42.6773 15.0232 42.71 14.8739 42.738C14.7339 42.766 14.5846 42.7893 14.4259 42.808C14.2672 42.8267 14.1086 42.85 13.9499 42.878C13.8006 42.906 13.6512 42.9433 13.5019 42.99C13.3619 43.0367 13.2359 43.102 13.1239 43.186C13.0212 43.2607 12.9372 43.3587 12.8719 43.48C12.8066 43.6013 12.7739 43.7553 12.7739 43.942C12.7739 44.1193 12.8066 44.2687 12.8719 44.39C12.9372 44.5113 13.0259 44.6093 13.1379 44.684C13.2499 44.7493 13.3806 44.796 13.5299 44.824C13.6792 44.852 13.8332 44.866 13.9919 44.866C14.3839 44.866 14.6872 44.8007 14.9019 44.67C15.1166 44.5393 15.2752 44.3853 15.3779 44.208C15.4806 44.0213 15.5412 43.8347 15.5599 43.648C15.5879 43.4613 15.6019 43.312 15.6019 43.2V42.458ZM22.703 46.896L25.727 38.762H23.669L22.087 43.718H22.059L20.421 38.762H18.307L20.841 45.552C20.897 45.692 20.925 45.8413 20.925 46C20.925 46.2147 20.8596 46.4107 20.729 46.588C20.6076 46.7653 20.4163 46.868 20.155 46.896C19.959 46.9053 19.763 46.9007 19.567 46.882C19.371 46.8633 19.1796 46.8447 18.993 46.826V48.464C19.1983 48.4827 19.399 48.4967 19.595 48.506C19.8003 48.5247 20.0056 48.534 20.211 48.534C20.8923 48.534 21.4243 48.408 21.807 48.156C22.1896 47.904 22.4883 47.484 22.703 46.896ZM26.4487 38.762V46H28.4367V41.8C28.4367 41.4453 28.4881 41.1607 28.5907 40.946C28.6934 40.722 28.8147 40.554 28.9547 40.442C29.1041 40.3207 29.2534 40.2413 29.4027 40.204C29.5614 40.1573 29.6874 40.134 29.7807 40.134C30.0981 40.134 30.3361 40.19 30.4947 40.302C30.6627 40.4047 30.7794 40.5447 30.8447 40.722C30.9194 40.8993 30.9614 41.0953 30.9707 41.31C30.9801 41.5153 30.9847 41.7253 30.9847 41.94V46H32.9727V41.968C32.9727 41.744 32.9867 41.5247 33.0147 41.31C33.0521 41.086 33.1174 40.89 33.2107 40.722C33.3134 40.5447 33.4487 40.4047 33.6167 40.302C33.7941 40.19 34.0227 40.134 34.3027 40.134C34.5827 40.134 34.8021 40.1807 34.9607 40.274C35.1287 40.3673 35.2547 40.4933 35.3387 40.652C35.4227 40.8107 35.4741 40.9973 35.4927 41.212C35.5114 41.4267 35.5207 41.6553 35.5207 41.898V46H37.5087V41.156C37.5087 40.6893 37.4434 40.2927 37.3127 39.966C37.1821 39.63 37.0001 39.3593 36.7667 39.154C36.5334 38.9487 36.2534 38.7993 35.9267 38.706C35.6001 38.6127 35.2454 38.566 34.8627 38.566C34.3587 38.566 33.9201 38.6873 33.5467 38.93C33.1827 39.1727 32.8934 39.4527 32.6787 39.77C32.4827 39.322 32.1934 39.0093 31.8107 38.832C31.4374 38.6547 31.0221 38.566 30.5647 38.566C30.0887 38.566 29.6641 38.6687 29.2907 38.874C28.9267 39.0793 28.6141 39.3687 28.3527 39.742H28.3247V38.762H26.4487ZM43.9522 41.604H40.7182C40.7276 41.464 40.7556 41.3053 40.8022 41.128C40.8582 40.9507 40.9469 40.7827 41.0682 40.624C41.1989 40.4653 41.3669 40.3347 41.5722 40.232C41.7869 40.12 42.0529 40.064 42.3702 40.064C42.8556 40.064 43.2149 40.1947 43.4482 40.456C43.6909 40.7173 43.8589 41.1 43.9522 41.604ZM40.7182 42.864H45.9402C45.9776 42.304 45.9309 41.7673 45.8002 41.254C45.6696 40.7407 45.4549 40.2833 45.1562 39.882C44.8669 39.4807 44.4936 39.1633 44.0362 38.93C43.5789 38.6873 43.0422 38.566 42.4262 38.566C41.8756 38.566 41.3716 38.664 40.9142 38.86C40.4662 39.056 40.0789 39.3267 39.7522 39.672C39.4256 40.008 39.1736 40.4093 38.9962 40.876C38.8189 41.3427 38.7302 41.8467 38.7302 42.388C38.7302 42.948 38.8142 43.4613 38.9822 43.928C39.1596 44.3947 39.4069 44.796 39.7242 45.132C40.0416 45.468 40.4289 45.7293 40.8862 45.916C41.3436 46.0933 41.8569 46.182 42.4262 46.182C43.2476 46.182 43.9476 45.9953 44.5262 45.622C45.1049 45.2487 45.5342 44.628 45.8142 43.76H44.0642C43.9989 43.984 43.8216 44.1987 43.5322 44.404C43.2429 44.6 42.8976 44.698 42.4962 44.698C41.9362 44.698 41.5069 44.5533 41.2082 44.264C40.9096 43.9747 40.7462 43.508 40.7182 42.864ZM47.1193 38.762V46H49.1073V42.206C49.1073 41.4687 49.2286 40.9413 49.4713 40.624C49.7139 40.2973 50.1059 40.134 50.6473 40.134C51.1233 40.134 51.4546 40.2833 51.6413 40.582C51.8279 40.8713 51.9213 41.3147 51.9213 41.912V46H53.9093V41.548C53.9093 41.1 53.8673 40.694 53.7833 40.33C53.7086 39.9567 53.5733 39.644 53.3773 39.392C53.1813 39.1307 52.9106 38.93 52.5653 38.79C52.2293 38.6407 51.7953 38.566 51.2633 38.566C50.8433 38.566 50.4326 38.664 50.0313 38.86C49.6299 39.0467 49.3033 39.35 49.0513 39.77H49.0093V38.762H47.1193ZM57.9381 38.762V36.592H55.9501V38.762H54.7461V40.092H55.9501V44.362C55.9501 44.726 56.0108 45.02 56.1321 45.244C56.2534 45.468 56.4168 45.6407 56.6221 45.762C56.8368 45.8833 57.0794 45.9627 57.3501 46C57.6301 46.0467 57.9241 46.07 58.2321 46.07C58.4281 46.07 58.6288 46.0653 58.8341 46.056C59.0394 46.0467 59.2261 46.028 59.3941 46V44.46C59.3008 44.4787 59.2028 44.4927 59.1001 44.502C58.9974 44.5113 58.8901 44.516 58.7781 44.516C58.4421 44.516 58.2181 44.46 58.1061 44.348C57.9941 44.236 57.9381 44.012 57.9381 43.676V40.092H59.3941V38.762H57.9381ZM64.4465 36.004V46H66.5045V38.986H66.5325L68.9825 46H70.6765L73.1265 38.916H73.1545V46H75.2125V36.004H72.1185L69.9065 42.878H69.8785L67.5405 36.004H64.4465ZM81.8096 41.604H78.5756C78.585 41.464 78.613 41.3053 78.6596 41.128C78.7156 40.9507 78.8043 40.7827 78.9256 40.624C79.0563 40.4653 79.2243 40.3347 79.4296 40.232C79.6443 40.12 79.9103 40.064 80.2276 40.064C80.713 40.064 81.0723 40.1947 81.3056 40.456C81.5483 40.7173 81.7163 41.1 81.8096 41.604ZM78.5756 42.864H83.7976C83.835 42.304 83.7883 41.7673 83.6576 41.254C83.527 40.7407 83.3123 40.2833 83.0136 39.882C82.7243 39.4807 82.351 39.1633 81.8936 38.93C81.4363 38.6873 80.8996 38.566 80.2836 38.566C79.733 38.566 79.229 38.664 78.7716 38.86C78.3236 39.056 77.9363 39.3267 77.6096 39.672C77.283 40.008 77.031 40.4093 76.8536 40.876C76.6763 41.3427 76.5876 41.8467 76.5876 42.388C76.5876 42.948 76.6716 43.4613 76.8396 43.928C77.017 44.3947 77.2643 44.796 77.5816 45.132C77.899 45.468 78.2863 45.7293 78.7436 45.916C79.201 46.0933 79.7143 46.182 80.2836 46.182C81.105 46.182 81.805 45.9953 82.3836 45.622C82.9623 45.2487 83.3916 44.628 83.6716 43.76H81.9216C81.8563 43.984 81.679 44.1987 81.3896 44.404C81.1003 44.6 80.755 44.698 80.3536 44.698C79.7936 44.698 79.3643 44.5533 79.0656 44.264C78.767 43.9747 78.6036 43.508 78.5756 42.864ZM87.4967 38.762V36.592H85.5087V38.762H84.3047V40.092H85.5087V44.362C85.5087 44.726 85.5694 45.02 85.6907 45.244C85.812 45.468 85.9754 45.6407 86.1807 45.762C86.3954 45.8833 86.638 45.9627 86.9087 46C87.1887 46.0467 87.4827 46.07 87.7907 46.07C87.9867 46.07 88.1874 46.0653 88.3927 46.056C88.598 46.0467 88.7847 46.028 88.9527 46V44.46C88.8594 44.4787 88.7614 44.4927 88.6587 44.502C88.556 44.5113 88.4487 44.516 88.3367 44.516C88.0007 44.516 87.7767 44.46 87.6647 44.348C87.5527 44.236 87.4967 44.012 87.4967 43.676V40.092H88.9527V38.762H87.4967ZM89.8986 36.004V46H91.8866V42.206C91.8866 41.4687 92.0079 40.9413 92.2506 40.624C92.4932 40.2973 92.8852 40.134 93.4266 40.134C93.9026 40.134 94.2339 40.2833 94.4206 40.582C94.6072 40.8713 94.7006 41.3147 94.7006 41.912V46H96.6886V41.548C96.6886 41.1 96.6466 40.694 96.5626 40.33C96.4879 39.9567 96.3526 39.644 96.1566 39.392C95.9606 39.1307 95.6899 38.93 95.3446 38.79C95.0086 38.6407 94.5746 38.566 94.0426 38.566C93.6692 38.566 93.2866 38.664 92.8946 38.86C92.5026 39.0467 92.1806 39.35 91.9286 39.77H91.8866V36.004H89.8986ZM99.9614 42.388C99.9614 42.0987 99.9894 41.814 100.045 41.534C100.101 41.254 100.195 41.0067 100.325 40.792C100.465 40.5773 100.647 40.4047 100.871 40.274C101.095 40.134 101.375 40.064 101.711 40.064C102.047 40.064 102.327 40.134 102.551 40.274C102.785 40.4047 102.967 40.5773 103.097 40.792C103.237 41.0067 103.335 41.254 103.391 41.534C103.447 41.814 103.475 42.0987 103.475 42.388C103.475 42.6773 103.447 42.962 103.391 43.242C103.335 43.5127 103.237 43.76 103.097 43.984C102.967 44.1987 102.785 44.3713 102.551 44.502C102.327 44.6327 102.047 44.698 101.711 44.698C101.375 44.698 101.095 44.6327 100.871 44.502C100.647 44.3713 100.465 44.1987 100.325 43.984C100.195 43.76 100.101 43.5127 100.045 43.242C99.9894 42.962 99.9614 42.6773 99.9614 42.388ZM97.9734 42.388C97.9734 42.9667 98.0621 43.4893 98.2394 43.956C98.4167 44.4227 98.6687 44.824 98.9954 45.16C99.3221 45.4867 99.7141 45.7387 100.171 45.916C100.629 46.0933 101.142 46.182 101.711 46.182C102.281 46.182 102.794 46.0933 103.251 45.916C103.718 45.7387 104.115 45.4867 104.441 45.16C104.768 44.824 105.02 44.4227 105.197 43.956C105.375 43.4893 105.463 42.9667 105.463 42.388C105.463 41.8093 105.375 41.2867 105.197 40.82C105.02 40.344 104.768 39.9427 104.441 39.616C104.115 39.28 103.718 39.0233 103.251 38.846C102.794 38.6593 102.281 38.566 101.711 38.566C101.142 38.566 100.629 38.6593 100.171 38.846C99.7141 39.0233 99.3221 39.28 98.9954 39.616C98.6687 39.9427 98.4167 40.344 98.2394 40.82C98.0621 41.2867 97.9734 41.8093 97.9734 42.388ZM111.894 42.36C111.894 42.6587 111.866 42.948 111.81 43.228C111.754 43.508 111.661 43.76 111.53 43.984C111.399 44.1987 111.222 44.3713 110.998 44.502C110.783 44.6327 110.513 44.698 110.186 44.698C109.878 44.698 109.612 44.6327 109.388 44.502C109.173 44.362 108.991 44.1847 108.842 43.97C108.702 43.746 108.599 43.494 108.534 43.214C108.469 42.934 108.436 42.654 108.436 42.374C108.436 42.0753 108.464 41.7907 108.52 41.52C108.585 41.24 108.683 40.9927 108.814 40.778C108.954 40.5633 109.136 40.3907 109.36 40.26C109.584 40.1293 109.859 40.064 110.186 40.064C110.513 40.064 110.783 40.1293 110.998 40.26C111.213 40.3907 111.385 40.5633 111.516 40.778C111.656 40.9833 111.754 41.226 111.81 41.506C111.866 41.7767 111.894 42.0613 111.894 42.36ZM111.922 45.076V46H113.812V36.004H111.824V39.644H111.796C111.572 39.2893 111.264 39.0233 110.872 38.846C110.489 38.6593 110.083 38.566 109.654 38.566C109.122 38.566 108.655 38.6733 108.254 38.888C107.853 39.0933 107.517 39.3687 107.246 39.714C106.985 40.0593 106.784 40.4607 106.644 40.918C106.513 41.366 106.448 41.8327 106.448 42.318C106.448 42.822 106.513 43.3073 106.644 43.774C106.784 44.2407 106.985 44.656 107.246 45.02C107.517 45.3747 107.857 45.6593 108.268 45.874C108.679 46.0793 109.155 46.182 109.696 46.182C110.172 46.182 110.597 46.098 110.97 45.93C111.353 45.7527 111.661 45.468 111.894 45.076H111.922ZM119.197 41.324V43.032H123.411V41.324H119.197ZM131.217 40.05V37.712H133.275C133.471 37.712 133.657 37.7307 133.835 37.768C134.021 37.796 134.185 37.852 134.325 37.936C134.465 38.02 134.577 38.1367 134.661 38.286C134.745 38.4353 134.787 38.6267 134.787 38.86C134.787 39.28 134.661 39.5833 134.409 39.77C134.157 39.9567 133.835 40.05 133.443 40.05H131.217ZM129.019 36.004V46H133.863C134.311 46 134.745 45.944 135.165 45.832C135.594 45.72 135.972 45.5473 136.299 45.314C136.635 45.0807 136.901 44.782 137.097 44.418C137.293 44.0447 137.391 43.606 137.391 43.102C137.391 42.4767 137.237 41.9447 136.929 41.506C136.63 41.058 136.173 40.7453 135.557 40.568C136.005 40.3533 136.341 40.078 136.565 39.742C136.798 39.406 136.915 38.986 136.915 38.482C136.915 38.0153 136.835 37.6233 136.677 37.306C136.527 36.9887 136.313 36.7367 136.033 36.55C135.753 36.354 135.417 36.214 135.025 36.13C134.633 36.046 134.199 36.004 133.723 36.004H129.019ZM131.217 44.292V41.548H133.611C134.087 41.548 134.469 41.66 134.759 41.884C135.048 42.0987 135.193 42.4627 135.193 42.976C135.193 43.2373 135.146 43.452 135.053 43.62C134.969 43.788 134.852 43.9233 134.703 44.026C134.553 44.1193 134.381 44.1893 134.185 44.236C133.989 44.2733 133.783 44.292 133.569 44.292H131.217ZM138.582 40.988C138.61 40.5213 138.727 40.134 138.932 39.826C139.137 39.518 139.399 39.2707 139.716 39.084C140.033 38.8973 140.388 38.7667 140.78 38.692C141.181 38.608 141.583 38.566 141.984 38.566C142.348 38.566 142.717 38.594 143.09 38.65C143.463 38.6967 143.804 38.7947 144.112 38.944C144.42 39.0933 144.672 39.3033 144.868 39.574C145.064 39.8353 145.162 40.1853 145.162 40.624V44.39C145.162 44.7167 145.181 45.0293 145.218 45.328C145.255 45.6267 145.321 45.8507 145.414 46H143.398C143.361 45.888 143.328 45.776 143.3 45.664C143.281 45.5427 143.267 45.4213 143.258 45.3C142.941 45.6267 142.567 45.8553 142.138 45.986C141.709 46.1167 141.27 46.182 140.822 46.182C140.477 46.182 140.155 46.14 139.856 46.056C139.557 45.972 139.296 45.8413 139.072 45.664C138.848 45.4867 138.671 45.2627 138.54 44.992C138.419 44.7213 138.358 44.3993 138.358 44.026C138.358 43.6153 138.428 43.2793 138.568 43.018C138.717 42.7473 138.904 42.5327 139.128 42.374C139.361 42.2153 139.623 42.0987 139.912 42.024C140.211 41.94 140.509 41.8747 140.808 41.828C141.107 41.7813 141.401 41.744 141.69 41.716C141.979 41.688 142.236 41.646 142.46 41.59C142.684 41.534 142.861 41.4547 142.992 41.352C143.123 41.24 143.183 41.0813 143.174 40.876C143.174 40.6613 143.137 40.4933 143.062 40.372C142.997 40.2413 142.903 40.1433 142.782 40.078C142.67 40.0033 142.535 39.9567 142.376 39.938C142.227 39.91 142.063 39.896 141.886 39.896C141.494 39.896 141.186 39.98 140.962 40.148C140.738 40.316 140.607 40.596 140.57 40.988H138.582ZM143.174 42.458C143.09 42.5327 142.983 42.5933 142.852 42.64C142.731 42.6773 142.595 42.71 142.446 42.738C142.306 42.766 142.157 42.7893 141.998 42.808C141.839 42.8267 141.681 42.85 141.522 42.878C141.373 42.906 141.223 42.9433 141.074 42.99C140.934 43.0367 140.808 43.102 140.696 43.186C140.593 43.2607 140.509 43.3587 140.444 43.48C140.379 43.6013 140.346 43.7553 140.346 43.942C140.346 44.1193 140.379 44.2687 140.444 44.39C140.509 44.5113 140.598 44.6093 140.71 44.684C140.822 44.7493 140.953 44.796 141.102 44.824C141.251 44.852 141.405 44.866 141.564 44.866C141.956 44.866 142.259 44.8007 142.474 44.67C142.689 44.5393 142.847 44.3853 142.95 44.208C143.053 44.0213 143.113 43.8347 143.132 43.648C143.16 43.4613 143.174 43.312 143.174 43.2V42.458ZM146.705 38.762V46H148.693V42.206C148.693 41.4687 148.815 40.9413 149.057 40.624C149.3 40.2973 149.692 40.134 150.233 40.134C150.709 40.134 151.041 40.2833 151.227 40.582C151.414 40.8713 151.507 41.3147 151.507 41.912V46H153.495V41.548C153.495 41.1 153.453 40.694 153.369 40.33C153.295 39.9567 153.159 39.644 152.963 39.392C152.767 39.1307 152.497 38.93 152.151 38.79C151.815 38.6407 151.381 38.566 150.849 38.566C150.429 38.566 150.019 38.664 149.617 38.86C149.216 39.0467 148.889 39.35 148.637 39.77H148.595V38.762H146.705ZM155.186 36.004V46H157.174V43.508L157.944 42.766L159.932 46H162.34L159.302 41.422L162.032 38.762H159.68L157.174 41.366V36.004H155.186ZM168.704 42.388C168.704 42.0987 168.732 41.814 168.788 41.534C168.844 41.254 168.937 41.0067 169.068 40.792C169.208 40.5773 169.39 40.4047 169.614 40.274C169.838 40.134 170.118 40.064 170.454 40.064C170.79 40.064 171.07 40.134 171.294 40.274C171.527 40.4047 171.709 40.5773 171.84 40.792C171.98 41.0067 172.078 41.254 172.134 41.534C172.19 41.814 172.218 42.0987 172.218 42.388C172.218 42.6773 172.19 42.962 172.134 43.242C172.078 43.5127 171.98 43.76 171.84 43.984C171.709 44.1987 171.527 44.3713 171.294 44.502C171.07 44.6327 170.79 44.698 170.454 44.698C170.118 44.698 169.838 44.6327 169.614 44.502C169.39 44.3713 169.208 44.1987 169.068 43.984C168.937 43.76 168.844 43.5127 168.788 43.242C168.732 42.962 168.704 42.6773 168.704 42.388ZM166.716 42.388C166.716 42.9667 166.804 43.4893 166.982 43.956C167.159 44.4227 167.411 44.824 167.738 45.16C168.064 45.4867 168.456 45.7387 168.914 45.916C169.371 46.0933 169.884 46.182 170.454 46.182C171.023 46.182 171.536 46.0933 171.994 45.916C172.46 45.7387 172.857 45.4867 173.184 45.16C173.51 44.824 173.762 44.4227 173.94 43.956C174.117 43.4893 174.206 42.9667 174.206 42.388C174.206 41.8093 174.117 41.2867 173.94 40.82C173.762 40.344 173.51 39.9427 173.184 39.616C172.857 39.28 172.46 39.0233 171.994 38.846C171.536 38.6593 171.023 38.566 170.454 38.566C169.884 38.566 169.371 38.6593 168.914 38.846C168.456 39.0233 168.064 39.28 167.738 39.616C167.411 39.9427 167.159 40.344 166.982 40.82C166.804 41.2867 166.716 41.8093 166.716 42.388ZM175.932 40.092V46H177.92V40.092H179.292V38.762H177.92V38.328C177.92 38.0293 177.976 37.8193 178.088 37.698C178.21 37.5673 178.406 37.502 178.676 37.502C178.928 37.502 179.171 37.516 179.404 37.544V36.06C179.236 36.0507 179.064 36.0413 178.886 36.032C178.709 36.0133 178.532 36.004 178.354 36.004C177.542 36.004 176.936 36.2093 176.534 36.62C176.133 37.0307 175.932 37.558 175.932 38.202V38.762H174.742V40.092H175.932ZM186.787 42.136L188.089 38.468H188.117L189.377 42.136H186.787ZM186.997 36.004L183.217 46H185.429L186.213 43.774H189.951L190.707 46H192.989L189.251 36.004H186.997ZM193.697 38.762V46H195.685V41.8C195.685 41.4453 195.736 41.1607 195.839 40.946C195.941 40.722 196.063 40.554 196.203 40.442C196.352 40.3207 196.501 40.2413 196.651 40.204C196.809 40.1573 196.935 40.134 197.029 40.134C197.346 40.134 197.584 40.19 197.743 40.302C197.911 40.4047 198.027 40.5447 198.093 40.722C198.167 40.8993 198.209 41.0953 198.219 41.31C198.228 41.5153 198.233 41.7253 198.233 41.94V46H200.221V41.968C200.221 41.744 200.235 41.5247 200.263 41.31C200.3 41.086 200.365 40.89 200.459 40.722C200.561 40.5447 200.697 40.4047 200.865 40.302C201.042 40.19 201.271 40.134 201.551 40.134C201.831 40.134 202.05 40.1807 202.209 40.274C202.377 40.3673 202.503 40.4933 202.587 40.652C202.671 40.8107 202.722 40.9973 202.741 41.212C202.759 41.4267 202.769 41.6553 202.769 41.898V46H204.757V41.156C204.757 40.6893 204.691 40.2927 204.561 39.966C204.43 39.63 204.248 39.3593 204.015 39.154C203.781 38.9487 203.501 38.7993 203.175 38.706C202.848 38.6127 202.493 38.566 202.111 38.566C201.607 38.566 201.168 38.6873 200.795 38.93C200.431 39.1727 200.141 39.4527 199.927 39.77C199.731 39.322 199.441 39.0093 199.059 38.832C198.685 38.6547 198.27 38.566 197.813 38.566C197.337 38.566 196.912 38.6687 196.539 38.874C196.175 39.0793 195.862 39.3687 195.601 39.742H195.573V38.762H193.697ZM211.2 41.604H207.966C207.976 41.464 208.004 41.3053 208.05 41.128C208.106 40.9507 208.195 40.7827 208.316 40.624C208.447 40.4653 208.615 40.3347 208.82 40.232C209.035 40.12 209.301 40.064 209.618 40.064C210.104 40.064 210.463 40.1947 210.696 40.456C210.939 40.7173 211.107 41.1 211.2 41.604ZM207.966 42.864H213.188C213.226 42.304 213.179 41.7673 213.048 41.254C212.918 40.7407 212.703 40.2833 212.404 39.882C212.115 39.4807 211.742 39.1633 211.284 38.93C210.827 38.6873 210.29 38.566 209.674 38.566C209.124 38.566 208.62 38.664 208.162 38.86C207.714 39.056 207.327 39.3267 207 39.672C206.674 40.008 206.422 40.4093 206.244 40.876C206.067 41.3427 205.978 41.8467 205.978 42.388C205.978 42.948 206.062 43.4613 206.23 43.928C206.408 44.3947 206.655 44.796 206.972 45.132C207.29 45.468 207.677 45.7293 208.134 45.916C208.592 46.0933 209.105 46.182 209.674 46.182C210.496 46.182 211.196 45.9953 211.774 45.622C212.353 45.2487 212.782 44.628 213.062 43.76H211.312C211.247 43.984 211.07 44.1987 210.78 44.404C210.491 44.6 210.146 44.698 209.744 44.698C209.184 44.698 208.755 44.5533 208.456 44.264C208.158 43.9747 207.994 43.508 207.966 42.864ZM214.367 38.762V46H216.355V42.738C216.355 42.4113 216.388 42.108 216.453 41.828C216.519 41.548 216.626 41.3053 216.775 41.1C216.934 40.8853 217.139 40.7173 217.391 40.596C217.643 40.4747 217.951 40.414 218.315 40.414C218.437 40.414 218.563 40.4233 218.693 40.442C218.824 40.4513 218.936 40.4653 219.029 40.484V38.636C218.871 38.5893 218.726 38.566 218.595 38.566C218.343 38.566 218.101 38.6033 217.867 38.678C217.634 38.7527 217.415 38.86 217.209 39C217.004 39.1307 216.822 39.294 216.663 39.49C216.505 39.6767 216.379 39.882 216.285 40.106H216.257V38.762H214.367ZM221.853 37.642V36.004H219.865V37.642H221.853ZM219.865 38.762V46H221.853V38.762H219.865ZM228.346 41.31H230.292C230.264 40.8433 230.152 40.442 229.956 40.106C229.76 39.7607 229.503 39.476 229.186 39.252C228.878 39.0187 228.523 38.846 228.122 38.734C227.73 38.622 227.319 38.566 226.89 38.566C226.302 38.566 225.779 38.664 225.322 38.86C224.865 39.056 224.477 39.3313 224.16 39.686C223.843 40.0313 223.6 40.4467 223.432 40.932C223.273 41.408 223.194 41.926 223.194 42.486C223.194 43.0273 223.283 43.5267 223.46 43.984C223.637 44.432 223.885 44.8193 224.202 45.146C224.519 45.4727 224.902 45.7293 225.35 45.916C225.807 46.0933 226.307 46.182 226.848 46.182C227.809 46.182 228.598 45.93 229.214 45.426C229.83 44.922 230.203 44.1893 230.334 43.228H228.416C228.351 43.676 228.187 44.0353 227.926 44.306C227.674 44.5673 227.31 44.698 226.834 44.698C226.526 44.698 226.265 44.628 226.05 44.488C225.835 44.348 225.663 44.1707 225.532 43.956C225.411 43.732 225.322 43.4847 225.266 43.214C225.21 42.9433 225.182 42.6773 225.182 42.416C225.182 42.1453 225.21 41.8747 225.266 41.604C225.322 41.324 225.415 41.072 225.546 40.848C225.686 40.6147 225.863 40.428 226.078 40.288C226.293 40.1387 226.559 40.064 226.876 40.064C227.725 40.064 228.215 40.4793 228.346 41.31ZM231.373 40.988C231.401 40.5213 231.518 40.134 231.723 39.826C231.929 39.518 232.19 39.2707 232.507 39.084C232.825 38.8973 233.179 38.7667 233.571 38.692C233.973 38.608 234.374 38.566 234.775 38.566C235.139 38.566 235.508 38.594 235.881 38.65C236.255 38.6967 236.595 38.7947 236.903 38.944C237.211 39.0933 237.463 39.3033 237.659 39.574C237.855 39.8353 237.953 40.1853 237.953 40.624V44.39C237.953 44.7167 237.972 45.0293 238.009 45.328C238.047 45.6267 238.112 45.8507 238.205 46H236.189C236.152 45.888 236.119 45.776 236.091 45.664C236.073 45.5427 236.059 45.4213 236.049 45.3C235.732 45.6267 235.359 45.8553 234.929 45.986C234.5 46.1167 234.061 46.182 233.613 46.182C233.268 46.182 232.946 46.14 232.647 46.056C232.349 45.972 232.087 45.8413 231.863 45.664C231.639 45.4867 231.462 45.2627 231.331 44.992C231.21 44.7213 231.149 44.3993 231.149 44.026C231.149 43.6153 231.219 43.2793 231.359 43.018C231.509 42.7473 231.695 42.5327 231.919 42.374C232.153 42.2153 232.414 42.0987 232.703 42.024C233.002 41.94 233.301 41.8747 233.599 41.828C233.898 41.7813 234.192 41.744 234.481 41.716C234.771 41.688 235.027 41.646 235.251 41.59C235.475 41.534 235.653 41.4547 235.783 41.352C235.914 41.24 235.975 41.0813 235.965 40.876C235.965 40.6613 235.928 40.4933 235.853 40.372C235.788 40.2413 235.695 40.1433 235.573 40.078C235.461 40.0033 235.326 39.9567 235.167 39.938C235.018 39.91 234.855 39.896 234.677 39.896C234.285 39.896 233.977 39.98 233.753 40.148C233.529 40.316 233.399 40.596 233.361 40.988H231.373ZM235.965 42.458C235.881 42.5327 235.774 42.5933 235.643 42.64C235.522 42.6773 235.387 42.71 235.237 42.738C235.097 42.766 234.948 42.7893 234.789 42.808C234.631 42.8267 234.472 42.85 234.313 42.878C234.164 42.906 234.015 42.9433 233.865 42.99C233.725 43.0367 233.599 43.102 233.487 43.186C233.385 43.2607 233.301 43.3587 233.235 43.48C233.17 43.6013 233.137 43.7553 233.137 43.942C233.137 44.1193 233.17 44.2687 233.235 44.39C233.301 44.5113 233.389 44.6093 233.501 44.684C233.613 44.7493 233.744 44.796 233.893 44.824C234.043 44.852 234.197 44.866 234.355 44.866C234.747 44.866 235.051 44.8007 235.265 44.67C235.48 44.5393 235.639 44.3853 235.741 44.208C235.844 44.0213 235.905 43.8347 235.923 43.648C235.951 43.4613 235.965 43.312 235.965 43.2V42.458ZM246.025 37.754V36.004H244.905V37.754L243.323 37.138L242.945 38.216L244.569 38.762L243.533 40.134L244.471 40.82L245.451 39.378L246.487 40.82L247.411 40.134L246.375 38.762L248.027 38.216L247.649 37.138L246.025 37.754ZM251.53 40.162V41.562C251.773 41.562 252.025 41.5713 252.286 41.59C252.557 41.5993 252.804 41.6507 253.028 41.744C253.252 41.828 253.434 41.968 253.574 42.164C253.723 42.36 253.798 42.6447 253.798 43.018C253.798 43.494 253.644 43.872 253.336 44.152C253.028 44.4227 252.65 44.558 252.202 44.558C251.913 44.558 251.661 44.5067 251.446 44.404C251.241 44.3013 251.068 44.166 250.928 43.998C250.788 43.8207 250.681 43.6153 250.606 43.382C250.531 43.1393 250.489 42.8873 250.48 42.626H248.59C248.581 43.1953 248.66 43.6993 248.828 44.138C249.005 44.5767 249.253 44.95 249.57 45.258C249.887 45.5567 250.27 45.7853 250.718 45.944C251.175 46.1027 251.679 46.182 252.23 46.182C252.706 46.182 253.163 46.112 253.602 45.972C254.041 45.832 254.428 45.6267 254.764 45.356C255.1 45.0853 255.366 44.7493 255.562 44.348C255.767 43.9467 255.87 43.4893 255.87 42.976C255.87 42.416 255.716 41.9353 255.408 41.534C255.1 41.1327 254.675 40.8713 254.134 40.75V40.722C254.591 40.5913 254.932 40.344 255.156 39.98C255.389 39.616 255.506 39.196 255.506 38.72C255.506 38.2813 255.408 37.894 255.212 37.558C255.016 37.222 254.759 36.9373 254.442 36.704C254.134 36.4707 253.784 36.298 253.392 36.186C253 36.0647 252.608 36.004 252.216 36.004C251.712 36.004 251.255 36.088 250.844 36.256C250.433 36.4147 250.079 36.6433 249.78 36.942C249.491 37.2407 249.262 37.6 249.094 38.02C248.935 38.4307 248.847 38.888 248.828 39.392H250.718C250.709 38.888 250.83 38.4727 251.082 38.146C251.343 37.81 251.726 37.642 252.23 37.642C252.594 37.642 252.916 37.754 253.196 37.978C253.476 38.202 253.616 38.524 253.616 38.944C253.616 39.224 253.546 39.448 253.406 39.616C253.275 39.784 253.103 39.9147 252.888 40.008C252.683 40.092 252.459 40.1433 252.216 40.162C251.973 40.1807 251.745 40.1807 251.53 40.162ZM256.635 39.966H258.539C258.539 39.7047 258.563 39.4433 258.609 39.182C258.665 38.9113 258.754 38.6687 258.875 38.454C258.997 38.23 259.155 38.0527 259.351 37.922C259.557 37.782 259.804 37.712 260.093 37.712C260.523 37.712 260.873 37.8473 261.143 38.118C261.423 38.3793 261.563 38.748 261.563 39.224C261.563 39.5227 261.493 39.7887 261.353 40.022C261.223 40.2553 261.055 40.4653 260.849 40.652C260.653 40.8387 260.434 41.0113 260.191 41.17C259.949 41.3193 259.72 41.4687 259.505 41.618C259.085 41.9073 258.684 42.192 258.301 42.472C257.928 42.752 257.601 43.06 257.321 43.396C257.041 43.7227 256.817 44.096 256.649 44.516C256.491 44.936 256.411 45.4307 256.411 46H263.607V44.292H258.973C259.216 43.956 259.496 43.662 259.813 43.41C260.131 43.158 260.457 42.9247 260.793 42.71C261.129 42.486 261.461 42.262 261.787 42.038C262.123 41.814 262.422 41.5667 262.683 41.296C262.945 41.016 263.155 40.6987 263.313 40.344C263.472 39.9893 263.551 39.5647 263.551 39.07C263.551 38.594 263.458 38.1647 263.271 37.782C263.094 37.3993 262.851 37.0773 262.543 36.816C262.235 36.5547 261.876 36.354 261.465 36.214C261.064 36.074 260.639 36.004 260.191 36.004C259.603 36.004 259.081 36.1067 258.623 36.312C258.175 36.508 257.802 36.788 257.503 37.152C257.205 37.5067 256.981 37.9267 256.831 38.412C256.682 38.888 256.617 39.406 256.635 39.966ZM267.088 40.162V41.562C267.331 41.562 267.583 41.5713 267.844 41.59C268.115 41.5993 268.362 41.6507 268.586 41.744C268.81 41.828 268.992 41.968 269.132 42.164C269.282 42.36 269.356 42.6447 269.356 43.018C269.356 43.494 269.202 43.872 268.894 44.152C268.586 44.4227 268.208 44.558 267.76 44.558C267.471 44.558 267.219 44.5067 267.004 44.404C266.799 44.3013 266.626 44.166 266.486 43.998C266.346 43.8207 266.239 43.6153 266.164 43.382C266.09 43.1393 266.048 42.8873 266.038 42.626H264.148C264.139 43.1953 264.218 43.6993 264.386 44.138C264.564 44.5767 264.811 44.95 265.128 45.258C265.446 45.5567 265.828 45.7853 266.276 45.944C266.734 46.1027 267.238 46.182 267.788 46.182C268.264 46.182 268.722 46.112 269.16 45.972C269.599 45.832 269.986 45.6267 270.322 45.356C270.658 45.0853 270.924 44.7493 271.12 44.348C271.326 43.9467 271.428 43.4893 271.428 42.976C271.428 42.416 271.274 41.9353 270.966 41.534C270.658 41.1327 270.234 40.8713 269.692 40.75V40.722C270.15 40.5913 270.49 40.344 270.714 39.98C270.948 39.616 271.064 39.196 271.064 38.72C271.064 38.2813 270.966 37.894 270.77 37.558C270.574 37.222 270.318 36.9373 270 36.704C269.692 36.4707 269.342 36.298 268.95 36.186C268.558 36.0647 268.166 36.004 267.774 36.004C267.27 36.004 266.813 36.088 266.402 36.256C265.992 36.4147 265.637 36.6433 265.338 36.942C265.049 37.2407 264.82 37.6 264.652 38.02C264.494 38.4307 264.405 38.888 264.386 39.392H266.276C266.267 38.888 266.388 38.4727 266.64 38.146C266.902 37.81 267.284 37.642 267.788 37.642C268.152 37.642 268.474 37.754 268.754 37.978C269.034 38.202 269.174 38.524 269.174 38.944C269.174 39.224 269.104 39.448 268.964 39.616C268.834 39.784 268.661 39.9147 268.446 40.008C268.241 40.092 268.017 40.1433 267.774 40.162C267.532 40.1807 267.303 40.1807 267.088 40.162ZM273.958 41.058C273.958 40.89 273.958 40.6893 273.958 40.456C273.967 40.2133 273.986 39.966 274.014 39.714C274.042 39.462 274.088 39.2147 274.154 38.972C274.219 38.72 274.308 38.496 274.42 38.3C274.541 38.104 274.69 37.9453 274.868 37.824C275.054 37.7027 275.283 37.642 275.554 37.642C275.824 37.642 276.053 37.7027 276.24 37.824C276.426 37.9453 276.58 38.104 276.702 38.3C276.823 38.496 276.912 38.72 276.968 38.972C277.033 39.2147 277.08 39.462 277.108 39.714C277.145 39.966 277.164 40.2133 277.164 40.456C277.173 40.6893 277.178 40.89 277.178 41.058C277.178 41.338 277.168 41.6787 277.15 42.08C277.131 42.472 277.07 42.8547 276.968 43.228C276.874 43.592 276.716 43.9047 276.492 44.166C276.277 44.4273 275.964 44.558 275.554 44.558C275.152 44.558 274.844 44.4273 274.63 44.166C274.415 43.9047 274.256 43.592 274.154 43.228C274.06 42.8547 274.004 42.472 273.986 42.08C273.967 41.6787 273.958 41.338 273.958 41.058ZM271.97 41.058C271.97 42.038 272.063 42.8593 272.25 43.522C272.446 44.1753 272.707 44.698 273.034 45.09C273.36 45.482 273.738 45.762 274.168 45.93C274.606 46.098 275.068 46.182 275.554 46.182C276.048 46.182 276.51 46.098 276.94 45.93C277.378 45.762 277.761 45.482 278.088 45.09C278.424 44.698 278.685 44.1753 278.872 43.522C279.068 42.8593 279.166 42.038 279.166 41.058C279.166 40.106 279.068 39.308 278.872 38.664C278.685 38.0107 278.424 37.488 278.088 37.096C277.761 36.704 277.378 36.424 276.94 36.256C276.51 36.088 276.048 36.004 275.554 36.004C275.068 36.004 274.606 36.088 274.168 36.256C273.738 36.424 273.36 36.704 273.034 37.096C272.707 37.488 272.446 38.0107 272.25 38.664C272.063 39.308 271.97 40.106 271.97 41.058Z" fill="#3755B0"/>
<path d="M6.24 14.4L0.88 5.72H3.78L7.56 12.12L11.28 5.72H14.08L8.74 14.4V20H6.24V14.4ZM18.0728 20.28C17.2461 20.28 16.5061 20.1467 15.8528 19.88C15.2128 19.6 14.6661 19.22 14.2128 18.74C13.7728 18.26 13.4328 17.6867 13.1928 17.02C12.9661 16.3533 12.8528 15.62 12.8528 14.82C12.8528 14.0333 12.9661 13.3067 13.1928 12.64C13.4328 11.9733 13.7728 11.4 14.2128 10.92C14.6661 10.44 15.2128 10.0667 15.8528 9.8C16.5061 9.52 17.2461 9.38 18.0728 9.38C18.8995 9.38 19.6328 9.52 20.2728 9.8C20.9261 10.0667 21.4728 10.44 21.9128 10.92C22.3661 11.4 22.7061 11.9733 22.9328 12.64C23.1728 13.3067 23.2928 14.0333 23.2928 14.82C23.2928 15.62 23.1728 16.3533 22.9328 17.02C22.7061 17.6867 22.3661 18.26 21.9128 18.74C21.4728 19.22 20.9261 19.6 20.2728 19.88C19.6328 20.1467 18.8995 20.28 18.0728 20.28ZM18.0728 18.48C18.5795 18.48 19.0195 18.3733 19.3928 18.16C19.7661 17.9467 20.0728 17.6667 20.3128 17.32C20.5528 16.9733 20.7261 16.5867 20.8328 16.16C20.9528 15.72 21.0128 15.2733 21.0128 14.82C21.0128 14.38 20.9528 13.94 20.8328 13.5C20.7261 13.06 20.5528 12.6733 20.3128 12.34C20.0728 11.9933 19.7661 11.7133 19.3928 11.5C19.0195 11.2867 18.5795 11.18 18.0728 11.18C17.5661 11.18 17.1261 11.2867 16.7528 11.5C16.3795 11.7133 16.0728 11.9933 15.8328 12.34C15.5928 12.6733 15.4128 13.06 15.2928 13.5C15.1861 13.94 15.1328 14.38 15.1328 14.82C15.1328 15.2733 15.1861 15.72 15.2928 16.16C15.4128 16.5867 15.5928 16.9733 15.8328 17.32C16.0728 17.6667 16.3795 17.9467 16.7528 18.16C17.1261 18.3733 17.5661 18.48 18.0728 18.48ZM34.2683 20H32.0283V18.56H31.9883C31.7083 19.08 31.2883 19.5 30.7283 19.82C30.1816 20.1267 29.6216 20.28 29.0483 20.28C27.6883 20.28 26.7016 19.9467 26.0883 19.28C25.4883 18.6 25.1883 17.58 25.1883 16.22V9.66H27.4683V16C27.4683 16.9067 27.6416 17.5467 27.9883 17.92C28.3349 18.2933 28.8216 18.48 29.4483 18.48C29.9283 18.48 30.3283 18.4067 30.6483 18.26C30.9683 18.1133 31.2283 17.92 31.4283 17.68C31.6283 17.4267 31.7683 17.1267 31.8483 16.78C31.9416 16.4333 31.9883 16.06 31.9883 15.66V9.66H34.2683V20ZM36.6727 9.66H38.8127V11.66H38.8527C38.9193 11.38 39.046 11.1067 39.2327 10.84C39.4327 10.5733 39.666 10.3333 39.9327 10.12C40.2127 9.89333 40.5193 9.71333 40.8527 9.58C41.186 9.44667 41.526 9.38 41.8727 9.38C42.1393 9.38 42.3193 9.38667 42.4127 9.4C42.5193 9.41333 42.626 9.42667 42.7327 9.44V11.64C42.5727 11.6133 42.406 11.5933 42.2327 11.58C42.0727 11.5533 41.9127 11.54 41.7527 11.54C41.366 11.54 40.9993 11.62 40.6527 11.78C40.3193 11.9267 40.026 12.1533 39.7727 12.46C39.5193 12.7533 39.3193 13.12 39.1727 13.56C39.026 14 38.9527 14.5067 38.9527 15.08V20H36.6727V9.66ZM52.0903 11.7H56.1703C56.7703 11.7 57.2703 11.5333 57.6703 11.2C58.0703 10.8533 58.2703 10.36 58.2703 9.72C58.2703 9 58.0903 8.49333 57.7303 8.2C57.3703 7.90667 56.8503 7.76 56.1703 7.76H52.0903V11.7ZM49.5903 5.72H56.5303C57.8103 5.72 58.837 6.01333 59.6103 6.6C60.3836 7.18667 60.7703 8.07333 60.7703 9.26C60.7703 9.98 60.5903 10.6 60.2303 11.12C59.8836 11.6267 59.3836 12.02 58.7303 12.3V12.34C59.6103 12.5267 60.277 12.9467 60.7303 13.6C61.1836 14.24 61.4103 15.0467 61.4103 16.02C61.4103 16.58 61.3103 17.1067 61.1103 17.6C60.9103 18.08 60.597 18.5 60.1703 18.86C59.7436 19.2067 59.197 19.4867 58.5303 19.7C57.8636 19.9 57.0703 20 56.1503 20H49.5903V5.72ZM52.0903 17.96H56.5103C57.2703 17.96 57.857 17.7667 58.2703 17.38C58.697 16.98 58.9103 16.42 58.9103 15.7C58.9103 14.9933 58.697 14.4533 58.2703 14.08C57.857 13.6933 57.2703 13.5 56.5103 13.5H52.0903V17.96ZM72.0123 17.7C72.0123 17.98 72.0457 18.18 72.1123 18.3C72.1923 18.42 72.339 18.48 72.5523 18.48C72.619 18.48 72.699 18.48 72.7923 18.48C72.8857 18.48 72.9923 18.4667 73.1123 18.44V20.02C73.0323 20.0467 72.9257 20.0733 72.7923 20.1C72.6723 20.14 72.5457 20.1733 72.4123 20.2C72.279 20.2267 72.1457 20.2467 72.0123 20.26C71.879 20.2733 71.7657 20.28 71.6723 20.28C71.2057 20.28 70.819 20.1867 70.5123 20C70.2057 19.8133 70.0057 19.4867 69.9123 19.02C69.459 19.46 68.899 19.78 68.2323 19.98C67.579 20.18 66.9457 20.28 66.3323 20.28C65.8657 20.28 65.419 20.2133 64.9923 20.08C64.5657 19.96 64.1857 19.78 63.8523 19.54C63.5323 19.2867 63.2723 18.9733 63.0723 18.6C62.8857 18.2133 62.7923 17.7667 62.7923 17.26C62.7923 16.62 62.9057 16.1 63.1323 15.7C63.3723 15.3 63.679 14.9867 64.0523 14.76C64.439 14.5333 64.8657 14.3733 65.3323 14.28C65.8123 14.1733 66.2923 14.0933 66.7723 14.04C67.1857 13.96 67.579 13.9067 67.9523 13.88C68.3257 13.84 68.6523 13.78 68.9323 13.7C69.2257 13.62 69.4523 13.5 69.6123 13.34C69.7857 13.1667 69.8723 12.9133 69.8723 12.58C69.8723 12.2867 69.799 12.0467 69.6523 11.86C69.519 11.6733 69.3457 11.5333 69.1323 11.44C68.9323 11.3333 68.7057 11.2667 68.4523 11.24C68.199 11.2 67.959 11.18 67.7323 11.18C67.0923 11.18 66.5657 11.3133 66.1523 11.58C65.739 11.8467 65.5057 12.26 65.4523 12.82H63.1723C63.2123 12.1533 63.3723 11.6 63.6523 11.16C63.9323 10.72 64.2857 10.3667 64.7123 10.1C65.1523 9.83333 65.6457 9.64667 66.1923 9.54C66.739 9.43333 67.299 9.38 67.8723 9.38C68.379 9.38 68.879 9.43333 69.3723 9.54C69.8657 9.64667 70.3057 9.82 70.6923 10.06C71.0923 10.3 71.4123 10.6133 71.6523 11C71.8923 11.3733 72.0123 11.8333 72.0123 12.38V17.7ZM69.7323 14.82C69.3857 15.0467 68.959 15.1867 68.4523 15.24C67.9457 15.28 67.439 15.3467 66.9323 15.44C66.6923 15.48 66.459 15.54 66.2323 15.62C66.0057 15.6867 65.8057 15.7867 65.6323 15.92C65.459 16.04 65.319 16.2067 65.2123 16.42C65.119 16.62 65.0723 16.8667 65.0723 17.16C65.0723 17.4133 65.1457 17.6267 65.2923 17.8C65.439 17.9733 65.6123 18.1133 65.8123 18.22C66.0257 18.3133 66.2523 18.38 66.4923 18.42C66.7457 18.46 66.9723 18.48 67.1723 18.48C67.4257 18.48 67.699 18.4467 67.9923 18.38C68.2857 18.3133 68.559 18.2 68.8123 18.04C69.079 17.88 69.299 17.68 69.4723 17.44C69.6457 17.1867 69.7323 16.88 69.7323 16.52V14.82ZM74.5256 5.72H76.8056V20H74.5256V5.72ZM87.9498 17.7C87.9498 17.98 87.9832 18.18 88.0498 18.3C88.1298 18.42 88.2765 18.48 88.4898 18.48C88.5565 18.48 88.6365 18.48 88.7298 18.48C88.8232 18.48 88.9298 18.4667 89.0498 18.44V20.02C88.9698 20.0467 88.8632 20.0733 88.7298 20.1C88.6098 20.14 88.4832 20.1733 88.3498 20.2C88.2165 20.2267 88.0832 20.2467 87.9498 20.26C87.8165 20.2733 87.7032 20.28 87.6098 20.28C87.1432 20.28 86.7565 20.1867 86.4498 20C86.1432 19.8133 85.9432 19.4867 85.8498 19.02C85.3965 19.46 84.8365 19.78 84.1698 19.98C83.5165 20.18 82.8832 20.28 82.2698 20.28C81.8032 20.28 81.3565 20.2133 80.9298 20.08C80.5032 19.96 80.1232 19.78 79.7898 19.54C79.4698 19.2867 79.2098 18.9733 79.0098 18.6C78.8232 18.2133 78.7298 17.7667 78.7298 17.26C78.7298 16.62 78.8432 16.1 79.0698 15.7C79.3098 15.3 79.6165 14.9867 79.9898 14.76C80.3765 14.5333 80.8032 14.3733 81.2698 14.28C81.7498 14.1733 82.2298 14.0933 82.7098 14.04C83.1232 13.96 83.5165 13.9067 83.8898 13.88C84.2632 13.84 84.5898 13.78 84.8698 13.7C85.1632 13.62 85.3898 13.5 85.5498 13.34C85.7232 13.1667 85.8098 12.9133 85.8098 12.58C85.8098 12.2867 85.7365 12.0467 85.5898 11.86C85.4565 11.6733 85.2832 11.5333 85.0698 11.44C84.8698 11.3333 84.6432 11.2667 84.3898 11.24C84.1365 11.2 83.8965 11.18 83.6698 11.18C83.0298 11.18 82.5032 11.3133 82.0898 11.58C81.6765 11.8467 81.4432 12.26 81.3898 12.82H79.1098C79.1498 12.1533 79.3098 11.6 79.5898 11.16C79.8698 10.72 80.2232 10.3667 80.6498 10.1C81.0898 9.83333 81.5832 9.64667 82.1298 9.54C82.6765 9.43333 83.2365 9.38 83.8098 9.38C84.3165 9.38 84.8165 9.43333 85.3098 9.54C85.8032 9.64667 86.2432 9.82 86.6298 10.06C87.0298 10.3 87.3498 10.6133 87.5898 11C87.8298 11.3733 87.9498 11.8333 87.9498 12.38V17.7ZM85.6698 14.82C85.3232 15.0467 84.8965 15.1867 84.3898 15.24C83.8832 15.28 83.3765 15.3467 82.8698 15.44C82.6298 15.48 82.3965 15.54 82.1698 15.62C81.9432 15.6867 81.7432 15.7867 81.5698 15.92C81.3965 16.04 81.2565 16.2067 81.1498 16.42C81.0565 16.62 81.0098 16.8667 81.0098 17.16C81.0098 17.4133 81.0832 17.6267 81.2298 17.8C81.3765 17.9733 81.5498 18.1133 81.7498 18.22C81.9632 18.3133 82.1898 18.38 82.4298 18.42C82.6832 18.46 82.9098 18.48 83.1098 18.48C83.3632 18.48 83.6365 18.4467 83.9298 18.38C84.2232 18.3133 84.4965 18.2 84.7498 18.04C85.0165 17.88 85.2365 17.68 85.4098 17.44C85.5832 17.1867 85.6698 16.88 85.6698 16.52V14.82ZM90.4031 9.66H92.5631V11.18L92.6031 11.22C92.9498 10.6467 93.4031 10.2 93.9631 9.88C94.5231 9.54667 95.1431 9.38 95.8231 9.38C96.9565 9.38 97.8498 9.67333 98.5031 10.26C99.1565 10.8467 99.4831 11.7267 99.4831 12.9V20H97.2031V13.5C97.1765 12.6867 97.0031 12.1 96.6831 11.74C96.3631 11.3667 95.8631 11.18 95.1831 11.18C94.7965 11.18 94.4498 11.2533 94.1431 11.4C93.8365 11.5333 93.5765 11.7267 93.3631 11.98C93.1498 12.22 92.9831 12.5067 92.8631 12.84C92.7431 13.1733 92.6831 13.5267 92.6831 13.9V20H90.4031V9.66ZM108.868 13.12C108.774 12.48 108.514 12 108.088 11.68C107.674 11.3467 107.148 11.18 106.508 11.18C106.214 11.18 105.901 11.2333 105.568 11.34C105.234 11.4333 104.928 11.62 104.648 11.9C104.368 12.1667 104.134 12.5467 103.948 13.04C103.761 13.52 103.668 14.1533 103.668 14.94C103.668 15.3667 103.714 15.7933 103.808 16.22C103.914 16.6467 104.074 17.0267 104.288 17.36C104.514 17.6933 104.801 17.9667 105.148 18.18C105.494 18.38 105.914 18.48 106.408 18.48C107.074 18.48 107.621 18.2733 108.048 17.86C108.488 17.4467 108.761 16.8667 108.868 16.12H111.148C110.934 17.4667 110.421 18.5 109.608 19.22C108.808 19.9267 107.741 20.28 106.408 20.28C105.594 20.28 104.874 20.1467 104.248 19.88C103.634 19.6 103.114 19.2267 102.688 18.76C102.261 18.28 101.934 17.7133 101.708 17.06C101.494 16.4067 101.388 15.7 101.388 14.94C101.388 14.1667 101.494 13.44 101.708 12.76C101.921 12.08 102.241 11.4933 102.668 11C103.094 10.4933 103.621 10.1 104.248 9.82C104.888 9.52667 105.634 9.38 106.488 9.38C107.088 9.38 107.654 9.46 108.188 9.62C108.734 9.76667 109.214 9.99333 109.628 10.3C110.054 10.6067 110.401 10.9933 110.668 11.46C110.934 11.9267 111.094 12.48 111.148 13.12H108.868ZM120.101 13.92C120.074 13.56 119.994 13.2133 119.861 12.88C119.741 12.5467 119.567 12.26 119.341 12.02C119.127 11.7667 118.861 11.5667 118.541 11.42C118.234 11.26 117.887 11.18 117.501 11.18C117.101 11.18 116.734 11.2533 116.401 11.4C116.081 11.5333 115.801 11.7267 115.561 11.98C115.334 12.22 115.147 12.5067 115.001 12.84C114.867 13.1733 114.794 13.5333 114.781 13.92H120.101ZM114.781 15.42C114.781 15.82 114.834 16.2067 114.941 16.58C115.061 16.9533 115.234 17.28 115.461 17.56C115.687 17.84 115.974 18.0667 116.321 18.24C116.667 18.4 117.081 18.48 117.561 18.48C118.227 18.48 118.761 18.34 119.161 18.06C119.574 17.7667 119.881 17.3333 120.081 16.76H122.241C122.121 17.32 121.914 17.82 121.621 18.26C121.327 18.7 120.974 19.0733 120.561 19.38C120.147 19.6733 119.681 19.8933 119.161 20.04C118.654 20.2 118.121 20.28 117.561 20.28C116.747 20.28 116.027 20.1467 115.401 19.88C114.774 19.6133 114.241 19.24 113.801 18.76C113.374 18.28 113.047 17.7067 112.821 17.04C112.607 16.3733 112.501 15.64 112.501 14.84C112.501 14.1067 112.614 13.4133 112.841 12.76C113.081 12.0933 113.414 11.5133 113.841 11.02C114.281 10.5133 114.807 10.1133 115.421 9.82C116.034 9.52667 116.727 9.38 117.501 9.38C118.314 9.38 119.041 9.55333 119.681 9.9C120.334 10.2333 120.874 10.68 121.301 11.24C121.727 11.8 122.034 12.4467 122.221 13.18C122.421 13.9 122.474 14.6467 122.381 15.42H114.781ZM124.294 17.3H127.074V20H124.294V17.3ZM124.294 9.88H127.074V12.58H124.294V9.88ZM139.227 7.18C138.507 7.18 137.947 7.33333 137.547 7.64C137.16 7.93333 136.967 8.43333 136.967 9.14C136.967 9.46 137.034 9.73333 137.167 9.96C137.3 10.1867 137.467 10.38 137.667 10.54C137.88 10.7 138.12 10.8333 138.387 10.94C138.667 11.0333 138.947 11.1133 139.227 11.18V7.18ZM136.667 15.66C136.654 16.54 136.847 17.2333 137.247 17.74C137.647 18.2467 138.307 18.5133 139.227 18.54V13.7C138.68 13.5533 138.134 13.38 137.587 13.18C137.054 12.9667 136.567 12.7 136.127 12.38C135.7 12.0467 135.354 11.6333 135.087 11.14C134.82 10.6467 134.687 10.0333 134.687 9.3C134.687 8.66 134.807 8.1 135.047 7.62C135.3 7.12667 135.634 6.72 136.047 6.4C136.474 6.06667 136.96 5.81333 137.507 5.64C138.054 5.46667 138.627 5.38 139.227 5.38V3.82H140.087V5.38C140.687 5.38 141.254 5.46 141.787 5.62C142.32 5.78 142.78 6.02 143.167 6.34C143.567 6.66 143.88 7.06667 144.107 7.56C144.347 8.05333 144.467 8.62667 144.467 9.28H142.187C142.16 8.6 141.98 8.08 141.647 7.72C141.327 7.36 140.807 7.18 140.087 7.18V11.4C140.687 11.56 141.274 11.7467 141.847 11.96C142.42 12.1733 142.927 12.4467 143.367 12.78C143.807 13.1133 144.16 13.5267 144.427 14.02C144.694 14.5133 144.827 15.12 144.827 15.84C144.827 16.5867 144.7 17.24 144.447 17.8C144.207 18.3467 143.874 18.8067 143.447 19.18C143.02 19.54 142.52 19.8133 141.947 20C141.374 20.2 140.754 20.3133 140.087 20.34V21.9H139.227V20.34C138.507 20.3267 137.847 20.2133 137.247 20C136.647 19.7867 136.134 19.4867 135.707 19.1C135.28 18.7 134.947 18.2133 134.707 17.64C134.48 17.0667 134.374 16.4067 134.387 15.66H136.667ZM140.087 18.54C140.807 18.4867 141.394 18.28 141.847 17.92C142.314 17.5467 142.547 16.96 142.547 16.16C142.547 15.7867 142.474 15.4733 142.327 15.22C142.194 14.9667 142.007 14.7533 141.767 14.58C141.54 14.4067 141.28 14.2667 140.987 14.16C140.694 14.0533 140.394 13.96 140.087 13.88V18.54ZM146.22 8.32C146.7 8.32 147.167 8.28 147.62 8.2C148.073 8.12 148.48 7.98667 148.84 7.8C149.213 7.61333 149.527 7.37333 149.78 7.08C150.047 6.78667 150.22 6.42667 150.3 6H152.16V20H149.66V10.12H146.22V8.32ZM157.653 17.3H160.433V20C160.42 20.8267 160.167 21.52 159.673 22.08C159.18 22.64 158.533 23 157.733 23.16V21.94C158.173 21.8333 158.5 21.5867 158.713 21.2C158.94 20.8267 159.047 20.4267 159.033 20H157.653V17.3ZM172.18 20H162.62C162.633 18.84 162.913 17.8267 163.46 16.96C164.007 16.0933 164.753 15.34 165.7 14.7C166.153 14.3667 166.627 14.0467 167.12 13.74C167.613 13.42 168.067 13.08 168.48 12.72C168.893 12.36 169.233 11.9733 169.5 11.56C169.767 11.1333 169.907 10.6467 169.92 10.1C169.92 9.84667 169.887 9.58 169.82 9.3C169.767 9.00667 169.653 8.74 169.48 8.5C169.307 8.24667 169.067 8.04 168.76 7.88C168.453 7.70667 168.053 7.62 167.56 7.62C167.107 7.62 166.727 7.71333 166.42 7.9C166.127 8.07333 165.887 8.32 165.7 8.64C165.527 8.94667 165.393 9.31333 165.3 9.74C165.22 10.1667 165.173 10.6267 165.16 11.12H162.88C162.88 10.3467 162.98 9.63333 163.18 8.98C163.393 8.31333 163.707 7.74 164.12 7.26C164.533 6.78 165.033 6.40667 165.62 6.14C166.22 5.86 166.913 5.72 167.7 5.72C168.553 5.72 169.267 5.86 169.84 6.14C170.413 6.42 170.873 6.77333 171.22 7.2C171.58 7.62667 171.833 8.09333 171.98 8.6C172.127 9.09333 172.2 9.56667 172.2 10.02C172.2 10.58 172.113 11.0867 171.94 11.54C171.767 11.9933 171.533 12.4133 171.24 12.8C170.947 13.1733 170.613 13.52 170.24 13.84C169.867 14.16 169.48 14.46 169.08 14.74C168.68 15.02 168.28 15.2867 167.88 15.54C167.48 15.7933 167.107 16.0467 166.76 16.3C166.427 16.5533 166.133 16.82 165.88 17.1C165.627 17.3667 165.453 17.6533 165.36 17.96H172.18V20ZM177.513 11.8C177.886 11.8133 178.26 11.7867 178.633 11.72C179.006 11.6533 179.34 11.54 179.633 11.38C179.926 11.2067 180.16 10.9733 180.333 10.68C180.52 10.3867 180.613 10.0267 180.613 9.6C180.613 9 180.406 8.52 179.993 8.16C179.593 7.8 179.073 7.62 178.433 7.62C178.033 7.62 177.686 7.7 177.393 7.86C177.1 8.02 176.853 8.24 176.653 8.52C176.466 8.78667 176.326 9.09333 176.233 9.44C176.14 9.77333 176.1 10.12 176.113 10.48H173.833C173.86 9.8 173.986 9.17333 174.213 8.6C174.44 8.01333 174.746 7.50667 175.133 7.08C175.533 6.65333 176.013 6.32 176.573 6.08C177.133 5.84 177.766 5.72 178.473 5.72C179.02 5.72 179.553 5.8 180.073 5.96C180.606 6.12 181.08 6.35333 181.493 6.66C181.92 6.96667 182.26 7.36 182.513 7.84C182.766 8.30667 182.893 8.84667 182.893 9.46C182.893 10.1667 182.733 10.7867 182.413 11.32C182.093 11.84 181.593 12.22 180.913 12.46V12.5C181.713 12.66 182.333 13.06 182.773 13.7C183.226 14.3267 183.453 15.0933 183.453 16C183.453 16.6667 183.32 17.2667 183.053 17.8C182.786 18.32 182.426 18.7667 181.973 19.14C181.52 19.5 180.993 19.78 180.393 19.98C179.793 20.18 179.16 20.28 178.493 20.28C177.68 20.28 176.966 20.1667 176.353 19.94C175.753 19.7 175.246 19.3667 174.833 18.94C174.433 18.5133 174.126 18 173.913 17.4C173.7 16.8 173.586 16.1333 173.573 15.4H175.853C175.826 16.2533 176.033 16.9667 176.473 17.54C176.926 18.1 177.6 18.38 178.493 18.38C179.253 18.38 179.886 18.1667 180.393 17.74C180.913 17.3 181.173 16.68 181.173 15.88C181.173 15.3333 181.066 14.9 180.853 14.58C180.64 14.26 180.36 14.02 180.013 13.86C179.666 13.6867 179.273 13.58 178.833 13.54C178.406 13.5 177.966 13.4867 177.513 13.5V11.8ZM185.126 8.32C185.606 8.32 186.073 8.28 186.526 8.2C186.98 8.12 187.386 7.98667 187.746 7.8C188.12 7.61333 188.433 7.37333 188.686 7.08C188.953 6.78667 189.126 6.42667 189.206 6H191.066V20H188.566V10.12H185.126V8.32ZM196.56 17.3H199.34V20H196.56V17.3ZM203.206 6H210.446V8.04H204.906L204.186 11.6L204.226 11.64C204.533 11.2933 204.919 11.0333 205.386 10.86C205.866 10.6733 206.339 10.58 206.806 10.58C207.499 10.58 208.119 10.7 208.666 10.94C209.213 11.1667 209.673 11.4933 210.046 11.92C210.419 12.3333 210.699 12.8267 210.886 13.4C211.086 13.9733 211.186 14.5933 211.186 15.26C211.186 15.82 211.093 16.4 210.906 17C210.733 17.5867 210.446 18.1267 210.046 18.62C209.659 19.1 209.159 19.5 208.546 19.82C207.933 20.1267 207.199 20.28 206.346 20.28C205.666 20.28 205.033 20.1867 204.446 20C203.873 19.8267 203.366 19.56 202.926 19.2C202.486 18.84 202.133 18.4 201.866 17.88C201.613 17.3467 201.473 16.7267 201.446 16.02H203.726C203.793 16.78 204.053 17.3667 204.506 17.78C204.959 18.18 205.559 18.38 206.306 18.38C206.786 18.38 207.193 18.3 207.526 18.14C207.859 17.98 208.126 17.76 208.326 17.48C208.539 17.2 208.686 16.8733 208.766 16.5C208.859 16.1267 208.906 15.7267 208.906 15.3C208.906 14.9133 208.853 14.5467 208.746 14.2C208.639 13.84 208.479 13.5267 208.266 13.26C208.053 12.9933 207.773 12.78 207.426 12.62C207.093 12.46 206.699 12.38 206.246 12.38C205.766 12.38 205.313 12.4733 204.886 12.66C204.473 12.8333 204.173 13.1667 203.986 13.66H201.706L203.206 6ZM214.099 14.88H218.339V8.72H218.299L214.099 14.88ZM222.299 16.68H220.499V20H218.339V16.68H212.339V14.42L218.339 6H220.499V14.88H222.299V16.68Z" fill="black"/>
</svg>
