<svg width="14" height="14" viewBox="0 0 14 14" fill="none" xmlns="http://www.w3.org/2000/svg">
<g opacity="0.5">
<path fill-rule="evenodd" clip-rule="evenodd" d="M13.3384 5.59978C13.3384 2.79547 11.0457 0.502823 8.24142 0.502823C5.43712 0.502823 3.14446 2.79546 3.14446 5.59978C3.14446 6.67984 3.48425 7.68247 4.06266 8.50899L0.708418 11.8586C0.357162 12.2098 0.357162 12.7816 0.708418 13.1328C1.05966 13.484 1.63142 13.484 1.98266 13.1328L5.33223 9.77855C6.15874 10.357 7.16136 10.6967 8.24142 10.6967C11.0457 10.6967 13.3384 8.40409 13.3384 5.59978ZM4.94339 5.59978C4.94339 3.76769 6.40935 2.30175 8.24142 2.30175C10.0735 2.30175 11.5395 3.76769 11.5395 5.59978C11.5395 7.43185 10.0735 8.89782 8.24142 8.89782C6.40935 8.89782 4.94339 7.43185 4.94339 5.59978Z" fill="black"/>
<path d="M4.06266 8.50899L4.29741 8.34471L4.43532 8.54177L4.26512 8.71173L4.06266 8.50899ZM0.708418 11.8586L0.505817 11.656L0.505959 11.6558L0.708418 11.8586ZM0.708418 13.1328L0.911014 12.9302L0.911018 12.9302L0.708418 13.1328ZM1.98266 13.1328L2.1854 13.3353L2.18526 13.3354L1.98266 13.1328ZM5.33223 9.77855L5.12949 9.57609L5.29945 9.40589L5.49651 9.5438L5.33223 9.77855ZM8.24142 0.216303C11.204 0.216303 13.6249 2.63723 13.6249 5.59978H13.0519C13.0519 2.95371 10.8875 0.789343 8.24142 0.789343V0.216303ZM2.85794 5.59978C2.85794 2.63722 5.27888 0.216303 8.24142 0.216303V0.789343C5.59536 0.789343 3.43098 2.95371 3.43098 5.59978H2.85794ZM3.82792 8.67327C3.21716 7.80053 2.85794 6.74093 2.85794 5.59978H3.43098C3.43098 6.61875 3.75134 7.56441 4.29741 8.34471L3.82792 8.67327ZM0.505959 11.6558L3.86021 8.30624L4.26512 8.71173L0.910877 12.0613L0.505959 11.6558ZM0.505822 13.3354C0.0426655 12.8723 0.0426712 12.1191 0.505817 11.656L0.911018 12.0612C0.671654 12.3005 0.671659 12.6908 0.911014 12.9302L0.505822 13.3354ZM2.18526 13.3354C1.72212 13.7985 0.968951 13.7985 0.505817 13.3354L0.911018 12.9302C1.15036 13.1695 1.54071 13.1695 1.78006 12.9302L2.18526 13.3354ZM5.53497 9.98101L2.1854 13.3353L1.77992 12.9303L5.12949 9.57609L5.53497 9.98101ZM8.24142 10.9833C7.10027 10.9833 6.04068 10.6241 5.16795 10.0133L5.49651 9.5438C6.2768 10.0899 7.22245 10.4102 8.24142 10.4102V10.9833ZM13.6249 5.59978C13.6249 8.56233 11.204 10.9833 8.24142 10.9833V10.4102C10.8875 10.4102 13.0519 8.24585 13.0519 5.59978H13.6249ZM8.24142 2.58827C6.56759 2.58827 5.22991 3.92594 5.22991 5.59978H4.65687C4.65687 3.60945 6.25111 2.01523 8.24142 2.01523V2.58827ZM11.2529 5.59978C11.2529 3.92593 9.91527 2.58827 8.24142 2.58827V2.01523C10.2317 2.01523 11.826 3.60945 11.826 5.59978H11.2529ZM8.24142 8.6113C9.91526 8.6113 11.2529 7.27361 11.2529 5.59978H11.826C11.826 7.59009 10.2318 9.18434 8.24142 9.18434V8.6113ZM5.22991 5.59978C5.22991 7.27361 6.56759 8.6113 8.24142 8.6113V9.18434C6.25111 9.18434 4.65687 7.59009 4.65687 5.59978H5.22991Z" fill="white"/>
</g>
</svg>
