<svg width="16" height="14" viewBox="0 0 16 14" fill="none" xmlns="http://www.w3.org/2000/svg">
<path fill-rule="evenodd" clip-rule="evenodd" d="M3.25758 2.45714C3.25758 1.43558 4.11056 0.599998 5.15341 0.599998L5.15341 0.600012C6.07902 0.600012 6.85391 1.25753 7.01684 2.11949H12.9953C14.469 2.11949 15.6667 3.29273 15.6667 4.73638C15.6667 6.18002 14.469 7.35326 12.9953 7.35326H3.1714C2.0673 7.35326 1.18939 8.21325 1.18939 9.29482C1.18939 10.3764 2.0673 11.2364 3.1714 11.2364H7.25399L6.28453 10.292C6.14315 10.1653 6.13372 9.95034 6.26299 9.81185C6.39225 9.67335 6.61173 9.66412 6.75311 9.79074L6.75312 9.79075L6.75312 9.79076L6.75313 9.79077C6.76053 9.79933 6.76793 9.8079 6.77465 9.81712L8.32579 11.3366C8.39109 11.3999 8.42812 11.4863 8.42812 11.5767C8.42812 11.667 8.39109 11.7534 8.32579 11.8167L6.78003 13.3309C6.71607 13.3969 6.62787 13.4345 6.53564 13.4358C6.44273 13.4371 6.35387 13.4022 6.28789 13.3382C6.22191 13.2742 6.18488 13.1872 6.18556 13.0968C6.18556 13.0058 6.22326 12.9194 6.28991 12.8561L7.25399 11.9117H3.1714C1.69768 11.9117 0.5 10.7384 0.5 9.2948C0.5 7.85116 1.69768 6.67792 3.1714 6.67792H12.9953C14.0994 6.67792 14.9773 5.81793 14.9773 4.73636C14.9773 3.6548 14.0994 2.7948 12.9953 2.7948H7.01684C6.85401 3.65677 6.07911 4.31428 5.15341 4.31428C4.11056 4.31428 3.25758 3.4787 3.25758 2.45714ZM6.35985 2.45714C6.35985 1.80029 5.82395 1.27532 5.15341 1.27532C4.48287 1.27532 3.94697 1.80029 3.94697 2.45714C3.94697 3.114 4.48287 3.63896 5.15341 3.63896C5.82395 3.63896 6.35985 3.114 6.35985 2.45714ZM11.0133 9.71688C9.97041 9.71688 9.11742 10.5525 9.11742 11.574C9.11742 12.5956 9.97041 13.4312 11.0133 13.4312C12.0561 13.4312 12.9091 12.5956 12.9091 11.574C12.9091 10.5525 12.0561 9.71688 11.0133 9.71688ZM12.2197 11.574C12.2197 10.9172 11.6838 10.3922 11.0133 10.3922C10.3427 10.3922 9.80682 10.9172 9.80682 11.574C9.80682 12.2309 10.3427 12.7558 11.0133 12.7558C11.6838 12.7558 12.2197 12.2309 12.2197 11.574Z" fill="white"/>
<path d="M5.15341 0.599998L5.39611 0.659977L5.47271 0.349998H5.15341V0.599998ZM5.15341 0.600012L4.91071 0.540034L4.8341 0.850012H5.15341V0.600012ZM7.01684 2.11949L6.77119 2.16592L6.80966 2.36949H7.01684V2.11949ZM7.25399 11.2364V11.4864H7.86889L7.42844 11.0573L7.25399 11.2364ZM6.28453 10.292L6.45913 10.1127L6.45132 10.1057L6.28453 10.292ZM6.75311 9.79074L6.96112 9.65207L6.94353 9.62568L6.9199 9.60451L6.75311 9.79074ZM6.75313 9.79077L6.54511 9.92944L6.55376 9.94241L6.56395 9.95421L6.75313 9.79077ZM6.77465 9.81712L6.57265 9.96442L6.58488 9.98119L6.59971 9.99571L6.77465 9.81712ZM8.32579 11.3366L8.15084 11.5152L8.15177 11.5161L8.32579 11.3366ZM8.32579 11.8167L8.15177 11.6372L8.15085 11.6381L8.32579 11.8167ZM6.78003 13.3309L6.60503 13.1523L6.60057 13.1569L6.78003 13.3309ZM6.53564 13.4358L6.53919 13.6858L6.53922 13.6858L6.53564 13.4358ZM6.28789 13.3382L6.46192 13.1587L6.46192 13.1587L6.28789 13.3382ZM6.18556 13.0968L6.43556 13.0987V13.0968H6.18556ZM6.28991 12.8561L6.46211 13.0374L6.46485 13.0347L6.28991 12.8561ZM7.25399 11.9117L7.42894 12.0903L7.86646 11.6617H7.25399V11.9117ZM7.01684 2.7948V2.5448H6.80965L6.77119 2.7484L7.01684 2.7948ZM5.15341 0.349998C3.97738 0.349998 3.00758 1.29267 3.00758 2.45714H3.50758C3.50758 1.57848 4.24375 0.849998 5.15341 0.849998V0.349998ZM5.3961 0.65999L5.39611 0.659977L4.91071 0.54002L4.91071 0.540034L5.3961 0.65999ZM7.26249 2.07306C7.07708 1.09212 6.19827 0.350012 5.15341 0.350012V0.850012C5.95977 0.850012 6.63075 1.42293 6.77119 2.16592L7.26249 2.07306ZM12.9953 1.86949H7.01684V2.36949H12.9953V1.86949ZM15.9167 4.73638C15.9167 3.14983 14.6022 1.86949 12.9953 1.86949V2.36949C14.3358 2.36949 15.4167 3.43564 15.4167 4.73638H15.9167ZM12.9953 7.60326C14.6022 7.60326 15.9167 6.32292 15.9167 4.73638H15.4167C15.4167 6.03711 14.3358 7.10326 12.9953 7.10326V7.60326ZM3.1714 7.60326H12.9953V7.10326H3.1714V7.60326ZM1.43939 9.29482C1.43939 8.35616 2.20049 7.60326 3.1714 7.60326V7.10326C1.93411 7.10326 0.93939 8.07034 0.93939 9.29482H1.43939ZM3.1714 10.9864C2.20049 10.9864 1.43939 10.2335 1.43939 9.29482H0.93939C0.93939 10.5193 1.93411 11.4864 3.1714 11.4864V10.9864ZM7.25399 10.9864H3.1714V11.4864H7.25399V10.9864ZM6.11008 10.471L7.07954 11.4155L7.42844 11.0573L6.45898 10.1129L6.11008 10.471ZM6.08022 9.64127C5.85545 9.88209 5.87194 10.258 6.11774 10.4782L6.45132 10.1057C6.41436 10.0726 6.412 10.0186 6.44575 9.98243L6.08022 9.64127ZM6.9199 9.60451C6.67786 9.38774 6.30297 9.40261 6.08022 9.64127L6.44575 9.98243C6.48153 9.94409 6.5456 9.9405 6.58632 9.97697L6.9199 9.60451ZM6.96113 9.65208L6.96112 9.65207L6.5451 9.92942L6.5451 9.92943L6.96113 9.65208ZM6.96113 9.65208L6.96113 9.65208L6.5451 9.92943L6.54511 9.92943L6.96113 9.65208ZM6.96114 9.65209L6.96113 9.65208L6.54511 9.92943L6.54511 9.92944L6.96114 9.65209ZM6.97665 9.66982C6.96284 9.65089 6.94861 9.63463 6.9423 9.62732L6.56395 9.95421C6.56794 9.95882 6.56993 9.96115 6.57162 9.96318C6.57311 9.96498 6.57323 9.96521 6.57265 9.96442L6.97665 9.66982ZM8.50074 11.158L6.9496 9.63853L6.59971 9.99571L8.15085 11.5152L8.50074 11.158ZM8.67812 11.5767C8.67812 11.4176 8.61289 11.2667 8.49981 11.1571L8.15177 11.5161C8.1693 11.5331 8.17812 11.555 8.17812 11.5767H8.67812ZM8.49981 11.9962C8.61289 11.8866 8.67812 11.7358 8.67812 11.5767H8.17812C8.17812 11.5983 8.1693 11.6202 8.15177 11.6372L8.49981 11.9962ZM6.95498 13.5095L8.50074 11.9953L8.15085 11.6381L6.60509 13.1523L6.95498 13.5095ZM6.53922 13.6858C6.69681 13.6835 6.8486 13.6193 6.95949 13.505L6.60057 13.1569C6.58354 13.1744 6.55894 13.1854 6.53207 13.1858L6.53922 13.6858ZM6.11386 13.5177C6.22807 13.6284 6.38109 13.688 6.53919 13.6858L6.53209 13.1858C6.50438 13.1862 6.47966 13.1759 6.46192 13.1587L6.11386 13.5177ZM5.93556 13.095C5.93437 13.2552 6.00006 13.4073 6.11386 13.5177L6.46192 13.1587C6.44376 13.1411 6.4354 13.1191 6.43555 13.0987L5.93556 13.095ZM6.11773 12.6748C6.00249 12.7843 5.93556 12.9358 5.93556 13.0968H6.43556C6.43556 13.0758 6.44403 13.0545 6.46209 13.0374L6.11773 12.6748ZM7.07905 11.7331L6.11496 12.6775L6.46485 13.0347L7.42894 12.0903L7.07905 11.7331ZM3.1714 12.1617H7.25399V11.6617H3.1714V12.1617ZM0.25 9.2948C0.25 10.8814 1.5645 12.1617 3.1714 12.1617V11.6617C1.83087 11.6617 0.75 10.5955 0.75 9.2948H0.25ZM3.1714 6.42792C1.5645 6.42792 0.25 7.70826 0.25 9.2948H0.75C0.75 7.99407 1.83087 6.92792 3.1714 6.92792V6.42792ZM12.9953 6.42792H3.1714V6.92792H12.9953V6.42792ZM14.7273 4.73636C14.7273 5.67502 13.9662 6.42792 12.9953 6.42792V6.92792C14.2326 6.92792 15.2273 5.96083 15.2273 4.73636H14.7273ZM12.9953 3.0448C13.9662 3.0448 14.7273 3.7977 14.7273 4.73636H15.2273C15.2273 3.51189 14.2326 2.5448 12.9953 2.5448V3.0448ZM7.01684 3.0448H12.9953V2.5448H7.01684V3.0448ZM5.15341 4.56428C6.19835 4.56428 7.07718 3.82218 7.2625 2.84121L6.77119 2.7484C6.63083 3.49136 5.95987 4.06428 5.15341 4.06428V4.56428ZM3.00758 2.45714C3.00758 3.62161 3.97738 4.56428 5.15341 4.56428V4.06428C4.24375 4.06428 3.50758 3.3358 3.50758 2.45714H3.00758ZM5.15341 1.52532C5.69076 1.52532 6.10985 1.94319 6.10985 2.45714H6.60985C6.60985 1.65738 5.95713 1.02532 5.15341 1.02532V1.52532ZM4.19697 2.45714C4.19697 1.94319 4.61606 1.52532 5.15341 1.52532V1.02532C4.34968 1.02532 3.69697 1.65738 3.69697 2.45714H4.19697ZM5.15341 3.38896C4.61606 3.38896 4.19697 2.97109 4.19697 2.45714H3.69697C3.69697 3.2569 4.34968 3.88896 5.15341 3.88896V3.38896ZM6.10985 2.45714C6.10985 2.97109 5.69076 3.38896 5.15341 3.38896V3.88896C5.95713 3.88896 6.60985 3.2569 6.60985 2.45714H6.10985ZM9.36742 11.574C9.36742 10.6954 10.1036 9.96688 11.0133 9.96688V9.46688C9.83722 9.46688 8.86742 10.4096 8.86742 11.574H9.36742ZM11.0133 13.1812C10.1036 13.1812 9.36742 12.4527 9.36742 11.574H8.86742C8.86742 12.7385 9.83722 13.6812 11.0133 13.6812V13.1812ZM12.6591 11.574C12.6591 12.4527 11.9229 13.1812 11.0133 13.1812V13.6812C12.1893 13.6812 13.1591 12.7385 13.1591 11.574H12.6591ZM11.0133 9.96688C11.9229 9.96688 12.6591 10.6954 12.6591 11.574H13.1591C13.1591 10.4096 12.1893 9.46688 11.0133 9.46688V9.96688ZM11.0133 10.6422C11.5506 10.6422 11.9697 11.0601 11.9697 11.574H12.4697C12.4697 10.7743 11.817 10.1422 11.0133 10.1422V10.6422ZM10.0568 11.574C10.0568 11.0601 10.4759 10.6422 11.0133 10.6422V10.1422C10.2095 10.1422 9.55682 10.7743 9.55682 11.574H10.0568ZM11.0133 12.5058C10.4759 12.5058 10.0568 12.088 10.0568 11.574H9.55682C9.55682 12.3738 10.2095 13.0058 11.0133 13.0058V12.5058ZM11.9697 11.574C11.9697 12.088 11.5506 12.5058 11.0133 12.5058V13.0058C11.817 13.0058 12.4697 12.3738 12.4697 11.574H11.9697Z" fill="white"/>
</svg>
